<svg width="113" height="85" viewBox="0 0 113 85" fill="none" xmlns="http://www.w3.org/2000/svg">
<path fill-rule="evenodd" clip-rule="evenodd" d="M56.4916 6.76831C48.6614 6.96601 42.1469 9.67105 36.9455 14.8834C31.7331 20.0849 29.028 26.5994 28.8303 34.4296C29.028 42.2598 31.7331 48.7756 36.9455 53.9757C42.1469 59.1881 48.6614 61.8932 56.4916 62.0908C64.3218 61.8932 70.8376 59.1881 76.0377 53.9757C81.2501 48.7756 83.9552 42.2598 84.1529 34.4296C83.9552 26.5994 81.2501 20.0849 76.0377 14.8834C70.8376 9.67105 64.3218 6.96601 56.4916 6.76831ZM56.4916 7.69408C64.0654 7.87951 70.3659 10.4918 75.3928 15.5297C80.4307 20.5553 83.0417 26.8557 83.2285 34.4296C83.0417 42.0034 80.4307 48.3038 75.3928 53.3308C70.3659 58.3687 64.0654 60.9797 56.4916 61.1664C48.9177 60.9797 42.6173 58.3687 37.5917 53.3308C32.5539 48.3038 29.9415 42.0034 29.7561 34.4296C29.9415 26.8557 32.5539 20.5553 37.5917 15.5297C42.6173 10.4918 48.9177 7.87951 56.4916 7.69408Z" fill="#CDCDCD"/>
<path fill-rule="evenodd" clip-rule="evenodd" d="M30.7522 34.4473C30.939 27.1529 33.4518 21.0788 38.292 16.2278C43.143 11.3876 49.2171 8.87478 56.5115 8.68799C63.8058 8.87478 69.8745 11.3876 74.7133 16.2278C79.5657 21.0788 82.084 27.1529 82.2708 34.4473C82.084 41.7416 79.5657 47.8102 74.7133 52.6491C69.8745 57.5015 63.8058 60.0198 56.5115 60.2066C49.2171 60.0198 43.143 57.5015 38.292 52.6491C33.4518 47.8102 30.939 41.7416 30.7522 34.4473Z" fill="#CDCDCD"/>
<path fill-rule="evenodd" clip-rule="evenodd" d="M49.1956 16.4719C49.0906 16.3096 48.9679 16.1978 48.8288 16.1406C48.7006 16.2455 48.567 16.2974 48.4279 16.2974C48.2998 16.1228 48.2698 15.9129 48.3407 15.6688C48.3748 15.4943 48.3461 15.3498 48.2534 15.2325C48.1021 15.1862 47.9507 15.163 47.7994 15.163C47.6126 15.163 47.4967 15.0812 47.4504 14.9189C47.4272 14.7444 47.4326 14.5699 47.4681 14.3954C47.5144 14.2318 47.5022 14.075 47.4326 13.9236C47.3277 13.7723 47.2295 13.79 47.1354 13.9768L47.2581 13.9236C47.2459 13.9359 47.2404 13.9536 47.2404 13.9768C47.1477 13.9645 47.0836 14 47.0482 14.0804C46.9323 14.1745 46.8273 14.2781 46.7346 14.3954C46.6187 14.5808 46.4673 14.7444 46.2805 14.8835C46.211 14.9421 46.1415 14.9939 46.0719 15.0403C46.0597 14.8194 46.0542 14.5876 46.0542 14.3422C45.9847 14.3545 45.9138 14.3776 45.8442 14.4131C45.7979 14.424 45.7515 14.4363 45.7052 14.4472C45.6002 14.5167 45.5416 14.6162 45.5307 14.7444C45.4025 15.0471 45.2225 15.3089 44.9894 15.5297C44.838 15.6811 44.6635 15.7861 44.4658 15.8433C44.5817 16.0069 44.7399 16.0819 44.9376 16.071C45.1121 16.0588 45.2921 16.0588 45.4775 16.071C45.652 16.1174 45.7979 16.2046 45.9138 16.3328C46.0774 16.4487 46.2165 16.4133 46.3337 16.2278C46.4373 16.041 46.5887 15.9251 46.7864 15.8788C46.9145 15.902 47.025 15.9715 47.1191 16.0874C47.374 16.4133 47.3808 16.7391 47.1354 17.065C47.404 17.0881 47.6249 17.17 47.7994 17.309C47.7408 17.5653 47.6017 17.8039 47.3808 18.0248C47.3917 18.1421 47.374 18.2457 47.3277 18.3398C47.2118 18.3507 47.0959 18.3452 46.9786 18.3221C46.8164 18.4039 46.6991 18.5252 46.6296 18.6888C46.5137 18.8047 46.4442 18.9438 46.421 19.1074C46.5955 19.1183 46.77 19.1019 46.9445 19.0542C47.0713 18.997 47.2063 18.9738 47.3454 18.9847C47.5076 19.1946 47.5608 19.4742 47.5022 19.8232C47.8867 19.8232 48.2466 19.7523 48.5847 19.6132C48.747 19.4742 48.7415 19.316 48.567 19.1415C48.1716 18.8974 48.0257 18.5838 48.1307 18.1993C48.2357 18.1298 48.3175 18.0303 48.3748 17.9035C48.387 17.7058 48.4675 17.624 48.6188 17.6581C48.7361 17.8449 48.8697 18.0071 49.021 18.1475C49.1956 18.1012 49.2828 17.973 49.2828 17.763C49.2828 17.5885 49.2883 17.4195 49.3005 17.2572C49.3237 17.1522 49.3646 17.065 49.4219 16.9954C49.4914 16.9259 49.5391 16.8564 49.5623 16.7855C49.4805 16.6587 49.3578 16.5537 49.1956 16.4719Z" fill="white"/>
<path fill-rule="evenodd" clip-rule="evenodd" d="M61.5403 17.8158C61.6576 17.9549 61.6862 18.1294 61.6276 18.3394C61.8839 18.4089 62.1634 18.3503 62.4661 18.1649C62.7333 18.1063 62.8492 17.9604 62.8152 17.7286C62.7224 17.565 62.6106 17.4082 62.4838 17.2568C62.6461 17.2214 62.762 17.1464 62.8329 17.0305C62.6461 16.856 62.4252 16.751 62.1689 16.7156C62.0871 16.7046 62.0121 16.6869 61.9426 16.6637C61.8498 16.6515 61.7503 16.6515 61.6453 16.6637L61.6985 16.9596C61.5349 16.9951 61.3658 17.0128 61.1913 17.0128C61.0986 17.036 61.0113 17.036 60.9295 17.0128C60.8491 16.9773 60.7618 16.9773 60.6677 17.0128C60.4823 17.3264 60.5573 17.5936 60.8954 17.8158C61.1163 17.8267 61.3317 17.8267 61.5403 17.8158Z" fill="white"/>
<path fill-rule="evenodd" clip-rule="evenodd" d="M82.2365 33.8192C82.2365 33.6106 82.231 33.4006 82.2188 33.1907C82.231 33.4129 82.2365 33.627 82.2365 33.8369C82.2365 33.8369 82.2365 33.8315 82.2365 33.8192Z" fill="white"/>
<path fill-rule="evenodd" clip-rule="evenodd" d="M81.1189 26.8203C81.2239 27.1584 81.322 27.502 81.4161 27.8511C81.322 27.5129 81.2239 27.1694 81.1189 26.8203Z" fill="white"/>
<path fill-rule="evenodd" clip-rule="evenodd" d="M80.2788 24.5356C80.4179 24.8615 80.5515 25.1928 80.6797 25.5296C80.5515 25.2037 80.4179 24.8724 80.2788 24.5356Z" fill="white"/>
<path fill-rule="evenodd" clip-rule="evenodd" d="M81.9702 30.6599C82.0288 31.0212 82.0752 31.3757 82.1106 31.7248C82.0629 31.3757 82.0166 31.0212 81.9702 30.6599Z" fill="white"/>
<path fill-rule="evenodd" clip-rule="evenodd" d="M75.3071 52.022C75.2022 52.1379 75.0972 52.2483 74.9922 52.3533C75.0972 52.236 75.2022 52.1256 75.3071 52.022Z" fill="white"/>
<path fill-rule="evenodd" clip-rule="evenodd" d="M80.0156 41.3055C79.5152 40.9687 79.2003 40.4915 79.0721 39.8753C78.8744 39.4676 78.6358 39.0845 78.3577 38.7232C78.1477 38.3619 78.0727 37.9733 78.13 37.5533C78.1654 37.1007 78.2118 36.6412 78.2704 36.1749C78.0959 36.1054 77.9445 36.0236 77.8164 35.9309C77.8164 35.7332 77.8041 35.5355 77.7809 35.3378C77.7346 35.1742 77.7059 35.0119 77.6937 34.8483C77.7059 34.8483 77.7291 34.896 77.7632 34.9887C77.8804 35.2096 78.0086 35.4305 78.1477 35.6514C78.5199 36.1749 78.8458 36.7285 79.1253 37.3093C79.2766 37.751 79.3407 38.2119 79.3175 38.6877C79.3284 39.2822 79.5793 39.7348 80.0674 40.0498C80.2542 40.1425 80.4451 40.1888 80.6428 40.1888C81.0968 38.3387 81.3245 36.419 81.3245 34.4297C81.0559 26.3323 77.95 19.8751 72.0041 15.0581C72.0518 15.5817 71.8827 16.0234 71.4982 16.3847C71.1846 16.5361 70.946 16.7692 70.7824 17.0828C70.6897 17.4782 70.5275 17.8395 70.2943 18.1654C69.9576 18.4558 69.6194 18.7585 69.2827 19.072C69.1422 19.2357 69.0495 19.4156 69.0032 19.6133C68.9909 19.7878 68.9977 19.9678 69.0209 20.1546C69.0086 20.3523 68.9677 20.55 68.8982 20.7477C68.7932 20.9345 68.7359 21.1254 68.7237 21.3231C69.0372 21.4171 69.3986 21.3462 69.8062 21.1145C70.1784 20.9508 70.4279 21.0327 70.5561 21.3585C70.5561 21.7307 70.672 22.0511 70.9051 22.3184C71.3592 22.4929 71.6496 22.3129 71.7777 21.7771C71.79 21.3708 71.7955 20.974 71.7955 20.5909C71.865 20.3114 71.8009 20.0551 71.6032 19.8233C71.4873 19.6951 71.411 19.5383 71.3769 19.3515C71.4001 19.1538 71.4873 18.9793 71.6387 18.828C71.79 18.6303 71.9059 18.4149 71.9877 18.1817C72.0341 17.9377 72.0804 17.6991 72.1268 17.4673C72.4295 17.1182 72.7839 17.1346 73.1916 17.5191C73.4479 17.984 73.3607 18.4503 72.9298 18.9152C72.8371 19.3693 73.0116 19.7006 73.4534 19.9106C73.8024 20.0374 74.1624 20.1083 74.5346 20.1192C74.7568 20.1778 74.9545 20.1492 75.129 20.0319C75.1863 19.8465 75.1686 19.6542 75.0759 19.4565C75.3322 19.5138 75.5653 19.6256 75.774 19.7878C75.8558 19.8928 75.8967 20.0142 75.8967 20.1546C75.9894 20.3291 75.9485 20.4164 75.774 20.4164C75.4481 20.4273 75.1222 20.4273 74.7964 20.4164C74.5755 20.37 74.4828 20.4627 74.5182 20.6959C74.5414 20.835 74.5114 20.9631 74.431 21.079C74.3028 21.1376 74.1692 21.1554 74.0288 21.1322C73.7383 21.0613 73.5052 21.1022 73.3307 21.2535C73.3075 21.394 73.3021 21.5453 73.313 21.7076C73.313 21.8357 73.3661 21.9462 73.4711 22.0389C73.5516 22.1316 73.5816 22.2488 73.5584 22.3879C73.5461 22.4806 73.5461 22.5747 73.5584 22.6674C73.5925 22.726 73.6102 22.7901 73.6102 22.8597C73.4711 22.9524 73.3021 22.9701 73.1044 22.9115C72.9298 22.9346 72.7662 22.9006 72.6149 22.8065C72.6272 22.9115 72.6094 23.011 72.5631 23.1037C72.5044 23.1732 72.4581 23.2496 72.424 23.33C72.4117 23.5864 72.2958 23.7432 72.075 23.8018C71.9468 23.8372 71.8132 23.8372 71.6728 23.8018C71.5446 23.7432 71.4232 23.6791 71.306 23.6095C71.0974 23.6327 70.882 23.7023 70.6611 23.8195C70.417 23.8659 70.1948 23.8195 69.9971 23.6791C69.963 23.5864 69.9685 23.4936 70.0148 23.4009C70.038 23.2605 69.9916 23.1446 69.8758 23.0519C69.7244 22.9006 69.5499 22.8419 69.3522 22.8774C69.0959 23.0287 69.0318 23.2373 69.16 23.5046C69.1013 23.75 68.8859 23.8427 68.5137 23.7841C68.3623 23.7731 68.2287 23.8141 68.1128 23.9068C68.0542 24.0118 68.0024 24.1154 67.956 24.2204C67.9329 24.3949 68.0378 24.5462 68.2696 24.6744C68.3051 24.9075 68.2124 25.0752 67.9901 25.1802C67.8865 25.2157 67.7815 25.2388 67.6765 25.2497C67.5838 25.2852 67.502 25.3438 67.4325 25.4243C67.3275 25.5183 67.2348 25.6288 67.153 25.7569C67.1298 25.8606 67.0657 25.9246 66.9607 25.9478C66.7521 25.9955 66.5367 26.0119 66.3158 26.001C66.1522 25.9778 65.9954 25.9955 65.8441 26.0528C65.6927 26.2396 65.7282 26.4141 65.9491 26.5764C66.2395 26.7168 66.4495 26.9309 66.5776 27.2226C66.5885 27.3385 66.6172 27.449 66.6649 27.5539C66.7344 27.6589 66.729 27.7639 66.6472 27.8675C66.4726 28.1007 66.2449 28.2166 65.9668 28.2166C65.6982 28.2166 65.5005 28.1061 65.3723 27.8853C65.1746 27.8621 64.9838 27.8566 64.797 27.8675C64.6579 27.8444 64.5407 27.8743 64.4479 27.9548C64.3661 28.0598 64.3198 28.1702 64.3089 28.2875C64.4125 28.4497 64.5706 28.5547 64.7793 28.6011C64.7915 28.7756 64.7329 28.9324 64.6047 29.0728C64.5816 29.1532 64.5407 29.2296 64.4834 29.2991C64.4357 29.3578 64.4016 29.415 64.3784 29.4736C64.5993 29.5895 64.6456 29.7409 64.5175 29.9277C64.4357 29.9618 64.3961 30.0149 64.3961 30.0845C64.512 30.1772 64.6511 30.2535 64.8147 30.3108C64.9892 30.4281 65.1692 30.5494 65.356 30.6776C65.5769 30.818 65.8086 30.8753 66.0541 30.8521C66.2054 30.6667 66.3622 30.4853 66.5244 30.3108C66.6417 30.2876 66.7453 30.2467 66.8394 30.1895C66.9198 30.0967 66.9553 29.9795 66.943 29.8404C66.8162 29.6073 66.7985 29.3918 66.8912 29.1941C67.078 29.1246 67.2689 29.1014 67.4666 29.1246C67.6765 29.1246 67.8742 29.1014 68.061 29.0551C68.1183 28.9146 68.1074 28.7933 68.0256 28.6883C67.9097 28.5956 67.8279 28.4906 67.7815 28.3747C67.9206 28.2002 68.136 28.1525 68.4264 28.2343C68.7414 28.0489 69.0441 28.008 69.3345 28.1129C69.3808 28.2057 69.4395 28.2929 69.509 28.3747C69.6249 28.4211 69.7476 28.432 69.8758 28.4088C70.1553 28.3625 70.417 28.3747 70.6611 28.4443C70.7538 28.642 70.8302 28.8628 70.8874 29.1069C70.9924 29.2351 71.126 29.2991 71.2896 29.2991C71.4641 29.276 71.6387 29.2814 71.8132 29.3169C71.9168 29.5146 71.9291 29.7641 71.8473 30.0667C72.0109 29.974 72.1268 29.8513 72.1963 29.7C72.1854 29.5732 72.1145 29.4682 71.9877 29.3864C71.7777 29.1764 71.6087 28.9324 71.4805 28.6529C71.2719 28.4783 71.0851 28.2875 70.9229 28.0775C70.8997 27.7639 71.0565 27.6357 71.3933 27.693C71.6264 27.7162 71.8595 27.7339 72.0913 27.7462C72.2781 27.723 72.4349 27.7639 72.5631 27.8675C72.7839 28.0898 72.8658 28.3515 72.8071 28.6529C72.7499 28.7347 72.7499 28.811 72.8071 28.8806C72.9121 28.9146 73.0171 28.9787 73.1221 29.0728C73.2734 29.34 73.2557 29.6018 73.0689 29.8581C73.0116 30.3585 73.2557 30.608 73.8024 30.608C74.0233 30.5153 74.1569 30.3408 74.2033 30.0845C74.2619 29.8281 74.2156 29.5895 74.0642 29.3687C74.4132 29.2296 74.7732 29.1996 75.1454 29.2814C75.309 29.3509 75.4481 29.3346 75.5653 29.2296C75.5885 29.0196 75.5299 28.8219 75.3908 28.6365C75.2858 28.4961 75.2627 28.3515 75.3199 28.2002C75.4604 28.072 75.6117 27.9725 75.774 27.903C76.0535 27.7407 76.303 27.5485 76.5252 27.3276C76.6179 27.1763 76.7284 27.0536 76.8565 26.9608C77.0542 26.9377 77.2233 27.0072 77.3623 27.1695C77.5014 27.3099 77.6596 27.3562 77.8341 27.3099C77.9377 27.1695 78.0482 27.0536 78.1654 26.9608C78.3508 27.1817 78.4735 27.5076 78.5322 27.9384C78.7871 28.1702 79.0789 28.3802 79.4048 28.5656C79.5561 29.1478 79.2412 29.4736 78.4613 29.5432C77.6937 29.7641 77.1878 29.5486 76.9438 28.8983C76.6288 29.1996 76.2689 29.4273 75.8612 29.5786C75.3731 29.5664 75.1345 29.7532 75.1454 30.1363C75.2627 30.3231 75.4195 30.4799 75.6172 30.608C75.7099 30.713 75.8149 30.8003 75.9307 30.8698C76.1407 30.9393 76.3561 30.9802 76.577 30.9925C76.8211 30.9925 77.0488 31.0443 77.2574 31.1493C77.3855 31.3006 77.5014 31.4683 77.6064 31.6551C77.8273 31.8174 77.9554 32.0164 77.9909 32.2482C77.8627 32.3655 77.7114 32.4637 77.5369 32.5455C77.4551 32.72 77.3978 32.889 77.3623 33.0513C77.1878 33.1563 76.9847 33.1795 76.7515 33.1208C76.4843 33.0976 76.228 33.1208 75.9839 33.1904C75.6458 33.3417 75.3145 33.3362 74.9886 33.174C74.8495 33.069 74.7214 32.9463 74.6055 32.8072C74.4419 32.6791 74.2565 32.615 74.0465 32.615C73.8024 32.5795 73.5747 32.6204 73.3661 32.7377C73.3539 32.9231 73.4588 33.0745 73.6797 33.1904C73.2489 33.2135 72.8249 33.2313 72.4063 33.2435C72.0804 33.2899 71.7655 33.2667 71.4641 33.174C71.2896 33.0458 71.1492 32.889 71.0442 32.7023C70.8697 32.5864 70.6952 32.4814 70.5207 32.3887C70.4402 32.1787 70.4743 31.9687 70.6256 31.7601C70.6611 31.4683 70.5097 31.3293 70.1716 31.3415C69.9276 31.3061 69.6835 31.2775 69.4395 31.2543C69.1954 31.2652 68.9677 31.3415 68.7591 31.4806C68.5028 31.6674 68.2287 31.8297 67.9383 31.9687C67.6247 32.0396 67.3043 32.0274 66.9785 31.9346C66.7221 31.8992 66.4604 31.8815 66.1931 31.8815C65.9491 31.8583 65.6982 31.8419 65.4432 31.8297C64.9892 32.0396 64.6579 32.3941 64.4479 32.8945C64.3089 33.1031 64.1221 33.2722 63.8889 33.4003C63.6108 33.5053 63.5399 33.6744 63.6803 33.9062C63.983 34.0807 64.0812 34.3084 63.9762 34.5865C63.6981 34.7965 63.3954 34.971 63.0695 35.1101C62.8827 35.2614 62.7437 35.4482 62.6509 35.6691C62.5228 35.89 62.3414 36.059 62.1097 36.1749C62.1206 36.8389 61.9692 37.4661 61.6556 38.0605C61.4811 38.3387 61.3652 38.6482 61.3066 38.9849C61.3189 39.2876 61.4811 39.4853 61.7947 39.578C61.4457 39.7416 61.2602 39.9571 61.2371 40.2243C61.3066 40.3756 61.3993 40.5038 61.5166 40.6074C61.5629 40.7124 61.6093 40.8174 61.6556 40.9224C61.7483 41.0151 61.8588 41.0914 61.9869 41.1487C62.1151 41.2414 62.1915 41.3764 62.2146 41.5509C62.2146 41.6545 62.2433 41.7486 62.3019 41.8291C62.3823 41.8877 62.4696 41.9395 62.5637 41.9872C62.715 42.114 62.8186 42.2722 62.8773 42.4576C62.7955 42.8298 62.9127 43.0861 63.2263 43.2252C63.529 43.2375 63.8139 43.3125 64.0812 43.4529C64.2789 43.6847 64.5175 43.7897 64.797 43.7665C64.9483 43.592 65.1174 43.4406 65.3028 43.3125C65.57 43.3125 65.8495 43.307 66.1413 43.2961C66.4672 43.2484 66.7862 43.1611 67.1012 43.0343C67.322 42.8707 67.5606 42.7494 67.8156 42.6676C68.1074 42.7016 68.2178 42.8707 68.1483 43.1734C67.9847 43.5456 68.0842 43.7842 68.4442 43.8892C68.7237 43.7488 68.95 43.7665 69.1245 43.941C69.2186 44.1851 69.2295 44.4305 69.16 44.6745C69.1368 44.8136 69.085 44.9418 69.0032 45.0577C68.9214 45.1517 68.9036 45.2499 68.95 45.3549C69.0781 45.4708 69.1831 45.5935 69.2649 45.7216C69.2758 45.8962 69.2063 46.0352 69.055 46.1402C68.9159 46.2561 68.8695 46.3965 68.9159 46.5588C69.0209 46.6638 69.1477 46.7456 69.299 46.8028C69.4735 46.9896 69.6781 47.1464 69.9098 47.2746C70.0271 47.6359 70.068 48.0136 70.0325 48.409C70.1021 48.5371 70.1839 48.6585 70.2766 48.7757C70.3816 48.9612 70.4225 49.1479 70.3993 49.3334C70.2125 49.6947 69.9276 49.9796 69.5444 50.1896C69.4272 50.2823 69.3699 50.4037 69.3699 50.555C69.2649 50.6832 69.1136 50.765 68.9159 50.8004C69.299 51.3703 69.5322 51.9921 69.614 52.667C69.5553 53.121 69.4735 53.5695 69.3699 54.0113C69.3808 54.4067 69.4449 54.8021 69.5608 55.1975C69.584 55.3025 69.5962 55.4075 69.5962 55.5124C74.8673 52.1611 78.4449 47.4614 80.3292 41.4105C80.2242 41.3873 80.1192 41.3532 80.0156 41.3055Z" fill="white"/>
<path fill-rule="evenodd" clip-rule="evenodd" d="M48.7955 57.4658C48.9237 57.3036 49.0804 57.1754 49.2672 57.0827C49.454 57.0595 49.6163 56.9954 49.7553 56.8905C49.6749 56.5646 49.4704 56.2265 49.1445 55.8774C49.424 55.7029 49.8194 55.692 50.3321 55.8433C50.6348 55.6688 50.8434 55.3771 50.9606 54.9708C51.2742 54.7376 51.4951 54.4527 51.6232 54.1159C51.6355 53.9291 51.6819 53.7546 51.7623 53.5923C51.9137 53.4287 52.1004 53.3305 52.3213 53.2951C52.7753 53.2597 53.1189 53.0565 53.3507 52.6843C53.5948 52.3121 53.7993 51.9221 53.9615 51.5145C54.0433 51.0386 54.0665 50.5669 54.0311 50.1019C54.136 49.7297 54.3692 49.4502 54.7291 49.2634C55.0086 49.0426 55.2186 48.7699 55.3577 48.444C55.614 48.0595 55.6835 47.6641 55.5676 47.2565C55.2295 46.9429 54.8464 46.6756 54.4156 46.4534C54.1483 46.1275 53.817 45.9421 53.4202 45.8958C53.0249 45.9299 52.6581 45.8494 52.3213 45.6517C52.17 45.5467 52.0077 45.4704 51.8332 45.424C51.6464 45.4131 51.4542 45.3954 51.2565 45.3722C51.1051 45.1513 51.1283 44.8541 51.326 44.4819C51.2919 44.261 51.1869 44.0742 51.0124 43.9229C50.8256 43.7375 50.6579 43.5275 50.5066 43.2957C50.4139 43.0857 50.2789 42.9112 50.1044 42.7721C49.9067 42.6903 49.7035 42.6958 49.4936 42.7885C49.2959 42.8826 49.0982 42.888 48.9005 42.8062C48.7614 42.6317 48.7028 42.4286 48.726 42.1954C48.5174 42.1722 48.3251 42.1259 48.1506 42.0563C48.0579 41.9391 47.9638 41.8232 47.8711 41.7073C47.8125 41.6841 47.7552 41.6487 47.6966 41.6023C47.6734 41.5437 47.6379 41.4864 47.5916 41.4278C47.522 41.2178 47.383 41.1142 47.173 41.1142C46.7422 41.3692 46.3181 41.4278 45.8996 41.2887C45.736 41.1715 45.5437 41.1306 45.3228 41.166C45.0788 41.166 44.8456 41.2069 44.6248 41.2887C44.4966 41.3119 44.4039 41.3692 44.3453 41.4633C44.4625 41.5205 44.5552 41.6023 44.6248 41.7073C44.5552 41.7768 44.4625 41.7946 44.3453 41.7591C43.9621 41.7019 43.5831 41.6541 43.2109 41.62C42.8387 41.6541 42.3737 41.6664 41.8147 41.6541C41.2448 41.631 40.9653 41.3692 40.9776 40.8688C41.1644 40.4161 41.088 40.0439 40.7513 39.7521C40.2618 39.624 39.9127 39.3799 39.7041 39.02C39.8555 38.5769 39.9946 38.1297 40.1227 37.6756C39.8664 37.3961 39.5692 37.4725 39.2324 37.902C38.9652 38.3914 38.5861 38.6532 38.098 38.6873C37.6672 38.3737 37.4177 37.9374 37.3481 37.3784C37.3004 37.1698 37.2309 36.9953 37.1382 36.8549C37.1504 36.844 37.1559 36.8317 37.1559 36.8208C37.1559 36.8317 37.1504 36.8385 37.1382 36.8385C37.1613 36.6872 37.1736 36.5358 37.1736 36.3845C37.1736 36.1868 37.2663 36.0695 37.4518 36.0354C37.6154 36.0123 37.6563 35.9305 37.5745 35.7914C37.4695 35.6046 37.4408 35.4192 37.4872 35.2324C37.6972 34.9297 37.993 34.7443 38.3775 34.6734C38.563 34.5575 38.7606 34.4702 38.9706 34.4116C39.1451 34.4239 39.3197 34.4525 39.4942 34.4989C39.6687 34.5111 39.8146 34.4525 39.9305 34.3243C39.9891 34.2084 39.9946 34.0803 39.9482 33.9412C40.18 33.7081 40.5058 33.6794 40.9258 33.854C41.1344 33.8308 41.3266 33.8717 41.5011 33.9753C41.5829 34.0926 41.6525 34.2207 41.7111 34.3598C41.8147 34.4525 41.932 34.5343 42.0601 34.6038C42.1529 34.7552 42.1706 34.9242 42.112 35.1097C42.251 35.576 42.461 35.6169 42.7405 35.2324C42.7514 35.081 42.6873 34.9583 42.5483 34.8656C42.4324 34.7265 42.386 34.5629 42.4092 34.3775C42.3274 34.0162 42.3383 33.6617 42.4433 33.3127C42.6301 33.0454 42.9027 32.9405 43.2641 32.9991C43.4727 32.9868 43.6076 32.8886 43.6649 32.7019C43.6772 32.5151 43.6826 32.3296 43.6826 32.1428C43.973 31.8293 44.003 31.5443 43.7699 31.288C43.6185 31.2184 43.549 31.108 43.5599 30.9567C43.5954 30.7467 43.6881 30.5722 43.8394 30.4331C43.9444 30.2818 44.078 30.1891 44.2416 30.1536C44.3453 30.2586 44.4216 30.3922 44.468 30.5558C44.6657 30.6949 44.817 30.6485 44.922 30.4154C44.922 30.2531 44.9561 30.1018 45.027 29.9614C45.2015 29.8346 45.3815 29.7173 45.5669 29.6123C45.7182 29.4855 45.8232 29.3274 45.8818 29.1419C45.9391 28.9211 46.0332 28.7234 46.1613 28.5488C46.2881 28.3975 46.4395 28.2571 46.614 28.1289C46.9862 27.9898 47.3598 27.833 47.732 27.6585C47.6148 27.833 47.6039 27.9953 47.6966 28.1466C47.8588 28.1821 48.0047 28.1289 48.1329 27.9898C48.4001 27.8031 48.6741 27.6353 48.9536 27.484C49.1391 27.2277 48.9768 27.1404 48.4642 27.2222C48.3019 27.2686 48.1683 27.2331 48.0633 27.1172C48.0047 26.9891 47.987 26.8432 48.0102 26.6809C47.987 26.6809 47.9583 26.6755 47.9229 26.6632C47.9352 26.4887 47.9352 26.3319 47.9229 26.1928C47.7484 26.1574 47.5916 26.2392 47.4525 26.4369C47.3244 26.5882 47.1962 26.5882 47.068 26.4369C47.0803 26.2037 47.2248 26.0347 47.5043 25.9311C47.8302 25.6516 48.1683 25.4007 48.5174 25.1798C48.6687 25.1225 48.8364 25.1048 49.0232 25.128C49.1854 25.1157 49.349 25.1157 49.5113 25.128C49.5113 25.2671 49.5167 25.4007 49.529 25.5288C49.7158 25.4007 49.8781 25.2493 50.0171 25.0748C50.0758 25.0285 50.1276 24.9767 50.1753 24.918C50.2094 24.813 50.2325 24.7094 50.2448 24.6044C50.3498 24.4872 50.4766 24.4476 50.6279 24.4817C50.7097 24.4354 50.7793 24.3658 50.8379 24.2731C50.9661 24.1559 51.0765 24.0223 51.1692 23.8709C51.0411 23.8137 50.8965 23.7659 50.7329 23.7318C50.6402 23.6732 50.5939 23.586 50.5939 23.4701C50.1167 23.6323 49.7267 23.5396 49.424 23.1906C49.2727 22.7256 49.2154 22.2362 49.2495 21.7249C49.2386 21.399 49.075 21.2763 48.7614 21.3581C48.3892 21.4277 48.0633 21.3404 47.7838 21.0963C47.5275 20.7473 47.2139 20.4801 46.8417 20.2933C46.3645 20.3396 45.9977 20.5851 45.7414 21.0268C45.4278 21.399 45.1947 21.8067 45.0433 22.2484C44.9861 22.5743 44.9629 22.9056 44.9738 23.2424C44.9397 23.7891 44.817 24.3127 44.607 24.813C44.4557 25.1853 44.2934 25.2207 44.1189 24.918C44.0494 24.5117 43.9212 24.1327 43.7344 23.7837C43.4563 23.5751 43.1304 23.4932 42.7582 23.5396C42.3042 23.5396 41.9606 23.3528 41.7275 22.9806C41.5298 22.5852 41.5066 22.1789 41.6579 21.759C41.7861 21.4331 41.9497 21.1195 42.1474 20.8168C42.3451 20.4337 42.5605 20.0615 42.7923 19.7002C43.1073 19.2816 43.4958 18.9503 43.9621 18.7049C44.3453 18.5781 44.6548 18.3627 44.8865 18.06C44.922 17.7218 44.7529 17.5242 44.3807 17.4669C43.9035 17.396 43.4495 17.4832 43.02 17.7287C42.671 17.9604 42.2919 18.1295 41.8856 18.2345C41.5011 18.2454 41.1112 18.2222 40.7158 18.165C40.379 18.165 40.0532 18.2045 39.7382 18.2863C39.7382 18.1009 39.7682 17.9373 39.8255 17.7982C39.9891 17.6005 40.1868 17.4369 40.4186 17.3087C40.5822 17.2515 40.6926 17.1574 40.7513 17.0306C40.7853 16.8329 40.8903 16.7456 41.0648 16.7688C41.1576 16.8956 41.2748 16.9774 41.4139 17.0129C41.5189 16.9202 41.5707 16.792 41.5707 16.6284C41.4657 16.3257 41.4602 16.0639 41.553 15.843C41.7397 15.7967 41.9374 15.7858 42.1474 15.809C42.2987 15.8321 42.4146 15.9248 42.4964 16.0871C42.671 16.1457 42.8332 16.1103 42.9846 15.9835C43.02 15.8785 42.9968 15.7681 42.915 15.6508C42.9027 15.3727 43.0595 15.1804 43.3854 15.0754C43.4904 14.9936 43.5899 14.9009 43.6826 14.7959C43.7413 14.6678 43.7004 14.5641 43.5599 14.4823C43.4209 14.121 43.624 13.8538 44.1707 13.6793C44.3575 13.5048 44.5552 13.4052 44.7652 13.3821C44.8225 13.5225 44.8402 13.6738 44.817 13.8361C44.9452 13.8947 45.0788 13.9124 45.2179 13.8892C45.2656 13.8538 45.3051 13.802 45.3406 13.7311C45.3992 13.6616 45.4687 13.6043 45.5505 13.5566C45.631 13.4298 45.7305 13.3766 45.8464 13.3998C45.9391 13.4461 46.0155 13.4298 46.0741 13.348C46.1545 13.2784 46.2418 13.2075 46.3359 13.138C46.0795 13.1612 45.8696 13.0971 45.7073 12.9458C45.6719 12.7712 45.7073 12.6144 45.8123 12.4754C45.905 12.3581 46.01 12.2654 46.1259 12.1959C46.3004 12.1495 46.4163 12.0568 46.4749 11.9164C46.4872 11.8591 46.4872 11.795 46.4749 11.7241C42.1706 13.667 38.6857 16.5643 36.0215 20.416C33.3683 24.2554 31.9258 28.6525 31.6926 33.6099C31.9258 33.7844 32.1412 33.9876 32.3389 34.2207C32.5134 34.3721 32.7111 34.4593 32.932 34.4825C33.5605 34.8547 33.9096 35.4587 33.9791 36.2972C34.1427 36.7158 34.4099 37.0417 34.7822 37.2748C34.7126 37.6702 34.8408 38.0192 35.1666 38.3219C35.4925 38.6478 35.8756 38.8686 36.3174 38.9845C36.7946 39.1004 37.2663 39.234 37.7313 39.3854C38.0926 39.5599 38.4471 39.7576 38.7961 39.9798C39.2501 40.1544 39.6687 40.3752 40.0532 40.6425C40.3081 40.9683 40.5004 41.3351 40.6285 41.7414C40.8726 42.1613 41.2339 42.3181 41.7111 42.2131C42.0247 42.0154 42.3383 41.9745 42.6532 42.0904C42.6996 42.1259 42.7405 42.1613 42.7746 42.1954C42.7514 42.4749 42.7637 42.7422 42.81 42.9985C42.8332 43.1266 42.8387 43.2548 42.8278 43.383C42.885 43.5343 42.915 43.6788 42.915 43.8193C42.8332 43.9229 42.7228 43.9761 42.5837 43.9761C42.4201 44.0456 42.3151 44.1683 42.2688 44.3428C42.2224 44.4942 42.2169 44.651 42.251 44.8132C42.2865 44.9414 42.251 45.0463 42.1474 45.1282C41.8215 45.4063 41.827 45.6285 42.1638 45.7908C42.3042 45.7908 42.3969 45.8426 42.4433 45.9476C42.4555 46.1575 42.3615 46.2966 42.1638 46.3661C42.0015 46.3198 41.8911 46.3498 41.8325 46.4534C41.8788 46.5938 41.9729 46.7097 42.112 46.8024C42.2047 46.9892 42.3097 47.1692 42.4255 47.3437C42.6355 47.4719 42.7869 47.6519 42.8796 47.885C42.9259 48.0718 42.9668 48.2572 43.0023 48.444C43.0255 48.5954 43.0364 48.7522 43.0364 48.9144C43.3854 49.3807 43.8053 49.7638 44.2934 50.0665C45.0038 50.136 45.4155 50.4155 45.5328 50.9036C45.3924 51.1368 45.3228 51.3877 45.3228 51.6549C45.3228 51.8758 45.2887 52.0966 45.2179 52.3175C45.1606 52.597 45.2588 52.8002 45.5151 52.9283C45.725 53.0919 45.7714 53.3074 45.6542 53.5746C45.6078 53.9005 45.5969 54.2195 45.6201 54.5345C45.5614 54.7431 45.4864 54.953 45.3924 55.163C45.4278 55.3375 45.5151 55.4943 45.6542 55.6334C45.725 55.9129 45.7128 56.1924 45.6201 56.4719C45.6078 56.5646 45.6023 56.6573 45.6023 56.75C46.3822 57.1222 47.173 57.4604 47.9761 57.7631C48.0456 57.6458 48.1097 57.5476 48.1683 57.4658C48.3428 57.2681 48.5514 57.2681 48.7955 57.4658Z" fill="white"/>
<path fill-rule="evenodd" clip-rule="evenodd" d="M30.7698 33.5923C30.7698 33.58 30.7698 33.58 30.7698 33.5923C30.782 33.5228 30.7875 33.4519 30.7875 33.3823C30.7752 33.4519 30.7698 33.5228 30.7698 33.5923Z" fill="white"/>
<path fill-rule="evenodd" clip-rule="evenodd" d="M46.7189 58.2515C46.9752 58.3687 47.237 58.4723 47.5042 58.5664C47.237 58.4723 46.9698 58.3687 46.7012 58.2515C46.7012 58.2515 46.708 58.2515 46.7189 58.2515Z" fill="white"/>
<path fill-rule="evenodd" clip-rule="evenodd" d="M48.1162 58.7932C48.1162 58.7809 48.1162 58.7755 48.1162 58.7755C48.0235 58.7523 47.9307 58.7237 47.8367 58.6882C47.9307 58.7237 48.0235 58.7578 48.1162 58.7932Z" fill="white"/>
<path fill-rule="evenodd" clip-rule="evenodd" d="M44.3298 11.7246C44.5275 11.6319 44.7252 11.5337 44.9229 11.4287C44.7252 11.5214 44.5275 11.621 44.3298 11.7246Z" fill="white"/>
<path fill-rule="evenodd" clip-rule="evenodd" d="M31.2783 29.194C31.3601 28.8109 31.4474 28.4387 31.5401 28.0774C31.4474 28.4496 31.3601 28.8218 31.2783 29.194Z" fill="white"/>
<path fill-rule="evenodd" clip-rule="evenodd" d="M32.5129 25.0589C32.4775 25.1516 32.4434 25.2443 32.408 25.337C32.4434 25.2334 32.4843 25.1284 32.5307 25.0234C32.5307 25.0357 32.5252 25.0466 32.5129 25.0589Z" fill="white"/>
<path fill-rule="evenodd" clip-rule="evenodd" d="M32.0059 26.4551C32.0754 26.2451 32.1504 26.0297 32.2322 25.8088C32.1504 26.0188 32.0754 26.2329 32.0059 26.4551Z" fill="white"/>
<path fill-rule="evenodd" clip-rule="evenodd" d="M46.3377 10.7646C46.1631 10.8465 45.9818 10.9283 45.7964 11.0101C45.9818 10.9283 46.1686 10.8465 46.354 10.7646C46.3431 10.7646 46.3377 10.7646 46.3377 10.7646Z" fill="white"/>
<path fill-rule="evenodd" clip-rule="evenodd" d="M52.7036 0.940096C53.0527 0.881468 53.4071 0.835111 53.7671 0.801025C53.4181 0.835111 53.0636 0.881468 52.7036 0.940096Z" fill="white"/>
<path fill-rule="evenodd" clip-rule="evenodd" d="M50.8557 10.4694C51.0534 10.5035 51.1693 10.6316 51.2048 10.8525C51.262 11.027 51.2743 11.2015 51.2389 11.3761C51.1352 11.481 51.1175 11.6037 51.187 11.7428C51.292 11.8355 51.3493 11.9528 51.3616 12.0919C51.3029 12.2786 51.2048 12.4463 51.0643 12.5977C51.2866 12.5977 51.5075 12.5977 51.7283 12.5977C51.8565 12.6331 51.9724 12.674 52.0774 12.7204C52.286 12.6972 52.391 12.7899 52.391 12.9999C52.4141 13.3258 52.4032 13.6516 52.3569 13.9775C52.6241 13.9775 52.8859 13.9543 53.1422 13.9066C53.4435 13.9066 53.5608 14.047 53.4912 14.3265C53.4203 14.4424 53.3631 14.5583 53.3167 14.6756C53.3167 14.7914 53.3222 14.9073 53.3331 15.0246C53.3917 15.1991 53.5308 15.315 53.753 15.3736C53.8103 15.6409 53.6358 15.7922 53.2295 15.8263C53.1354 15.8263 53.0659 15.8672 53.0195 15.949C52.9268 16.0772 52.8041 16.1821 52.6527 16.2626C52.3037 16.3103 52.1824 16.4548 52.286 16.6989C52.4373 16.793 52.6118 16.8216 52.8095 16.7861C53.0427 16.7752 53.2758 16.7752 53.5076 16.7861C53.3685 16.9729 53.2117 17.1352 53.0372 17.2756C52.8968 17.3574 52.7577 17.4324 52.6186 17.5019C52.3732 17.7119 52.4141 17.9042 52.74 18.0787C53.0318 18.2055 53.1586 18.4209 53.1245 18.7236C53.0781 18.9908 53.1299 19.2362 53.2813 19.4571C53.4912 19.5962 53.723 19.6425 53.9794 19.5962C54.1893 19.8757 54.4334 19.9575 54.7129 19.8402C55.0851 19.4912 55.3169 19.0672 55.411 18.5668C55.4914 18.3227 55.4805 18.0841 55.3755 17.851C55.2828 17.6765 55.2828 17.5074 55.3755 17.3451C55.5268 17.1706 55.7123 17.0956 55.9345 17.1188C56.0613 17.1884 56.1895 17.2633 56.3176 17.3451C56.5044 17.3451 56.6789 17.2756 56.8412 17.1352C56.8644 17.0547 56.8875 16.9784 56.9107 16.9089C56.9107 16.8161 56.9107 16.7289 56.9107 16.6471C57.0621 16.4494 57.2666 16.373 57.5215 16.4207C57.6265 16.4439 57.7261 16.4371 57.8188 16.403C57.8774 16.3444 57.9347 16.2803 57.9933 16.2108C58.2142 16.0949 58.4419 16.0485 58.6736 16.0717C58.9068 16.0717 59.0922 15.9899 59.2326 15.8263C59.2436 15.7458 59.2613 15.6586 59.2845 15.5645C59.3308 15.4718 59.4072 15.4023 59.5122 15.3559C59.6158 15.3668 59.7153 15.39 59.808 15.4254C59.8898 15.39 59.9539 15.3436 60.0003 15.2864C60.0466 15.2046 60.0998 15.135 60.1571 15.0764C60.2266 15.03 60.2798 14.966 60.3138 14.8842C59.9307 14.756 59.5694 14.5883 59.2326 14.3783C59.1154 14.1915 59.0759 13.9829 59.1099 13.7498C58.994 13.7389 58.8782 13.7389 58.7609 13.7498C58.645 13.7266 58.5291 13.698 58.4119 13.6625C58.6791 13.383 58.9995 13.1976 59.3717 13.1049C59.5462 13.1853 59.7262 13.2726 59.913 13.3667C60.2498 13.169 60.4188 12.8431 60.4188 12.3891C60.6056 12.3195 60.7856 12.2432 60.9601 12.1614C61.0651 11.9991 61.0419 11.8423 60.8906 11.691C60.7733 11.5628 60.7161 11.4115 60.7161 11.237C60.832 11.0625 61.0065 10.9575 61.2396 10.9234C61.5068 10.8879 61.5887 10.7884 61.4837 10.6262C61.1701 10.5212 60.9192 10.3644 60.7338 10.1544C60.7338 10.0972 60.7679 10.044 60.8374 9.99763C59.4303 9.7413 57.981 9.6145 56.4922 9.6145C54.3516 9.6145 52.2928 9.87628 50.3145 10.3998C50.4767 10.4694 50.658 10.4926 50.8557 10.4694Z" fill="white"/>
<path fill-rule="evenodd" clip-rule="evenodd" d="M54.5872 0.72998C54.425 0.742251 54.2614 0.759976 54.0991 0.783154C54.2614 0.759976 54.4304 0.742251 54.605 0.72998C54.5927 0.72998 54.5872 0.72998 54.5872 0.72998Z" fill="white"/>
<path fill-rule="evenodd" clip-rule="evenodd" d="M51.0125 1.23696C51.0125 1.24787 51.0125 1.25332 51.0125 1.25332C51.0588 1.24242 51.0997 1.23015 51.1352 1.21924C51.0997 1.23015 51.0588 1.23696 51.0125 1.23696Z" fill="white"/>
<path fill-rule="evenodd" clip-rule="evenodd" d="M44.868 37.85C44.7058 37.7682 44.5831 37.64 44.5026 37.4655C44.4795 37.291 44.4617 37.111 44.4495 36.9256C44.2518 36.9133 44.0541 36.9079 43.8564 36.9079C43.6941 36.8847 43.5305 36.8438 43.3683 36.7852C43.3683 36.762 43.3615 36.7388 43.3505 36.7156L43.2456 36.6106C42.8965 36.5875 42.5652 36.6461 42.2503 36.7852C41.8208 36.9024 41.7103 37.0824 41.9189 37.3264C42.1398 37.4314 42.3784 37.501 42.6347 37.5364C42.8324 37.64 43.0301 37.7396 43.2278 37.8323C43.251 37.925 43.2633 38.0191 43.2633 38.1118C43.6587 38.1472 44.0541 38.1527 44.4495 38.1295C44.6008 38.0941 44.6703 38.1527 44.6594 38.304C44.6594 38.5126 44.6649 38.7171 44.6772 38.9148C44.9908 38.8562 45.2703 38.6994 45.5143 38.4431C45.7243 38.3272 45.9329 38.2168 46.1429 38.1118C45.6766 38.1936 45.2525 38.1063 44.868 37.85Z" fill="white"/>
<path fill-rule="evenodd" clip-rule="evenodd" d="M66.1613 23.1548C66.1844 23.5747 65.9472 23.8597 65.4468 24.011C65.1782 24.476 65.3241 24.7091 65.8831 24.7091C66.0917 24.615 66.2553 24.476 66.3712 24.2892C66.5335 24.1269 66.6971 23.9756 66.8593 23.8365C67.1388 23.4875 67.1443 23.1153 66.8771 22.7185C66.5866 22.3463 66.3944 21.9332 66.3017 21.4805C66.453 20.991 66.3249 20.6311 65.9172 20.3979V20.6079C65.9172 20.5725 65.9117 20.5438 65.8995 20.5207C65.6445 20.4975 65.3882 20.5261 65.1319 20.6079C64.9928 21.2583 65.0337 21.8814 65.2546 22.4745C65.5804 22.6612 65.8831 22.8876 66.1613 23.1548Z" fill="white"/>
<path fill-rule="evenodd" clip-rule="evenodd" d="M63.6515 24.0279C64.0592 24.2024 64.3264 24.1097 64.4546 23.7498C64.4082 23.3775 64.2569 23.0285 64.0006 22.7026V22.8063C63.5943 22.6672 63.2848 22.8417 63.0762 23.3298C63.0762 23.7266 63.2684 23.9584 63.6515 24.0279Z" fill="white"/>
<path fill-rule="evenodd" clip-rule="evenodd" d="M35.5326 56.9957C29.0986 54.6915 23.9748 51.5734 20.1585 47.6412C16.3423 43.7091 14.3871 39.3052 14.2944 34.4296C14.3871 29.5553 16.3423 25.1569 20.1585 21.2357C23.9748 17.3036 29.0986 14.1854 35.5326 11.8826C33.7997 12.7892 32.1704 13.8077 30.646 14.9367C23.5494 20.3467 19.9431 26.8435 19.8259 34.4296C19.9431 42.0266 23.5494 48.5316 30.646 53.9417C32.1704 55.0692 33.7997 56.0877 35.5326 56.9957Z" fill="white"/>
<path fill-rule="evenodd" clip-rule="evenodd" d="M12.8625 49.8232C9.16347 47.8571 6.21301 45.6988 4.01516 43.3483C1.34965 40.451 0.0121281 37.4842 0.0012207 34.4478C0.0121281 31.3992 1.34965 28.4324 4.01516 25.5473C6.21301 23.1859 9.16347 21.0221 12.8625 19.0547C7.77823 23.6972 5.2068 28.8278 5.14953 34.4478C5.2068 40.0679 7.77823 45.193 12.8625 49.8232Z" fill="white"/>
<path fill-rule="evenodd" clip-rule="evenodd" d="M77.4878 56.9957C83.9218 54.6915 89.0456 51.5734 92.8618 47.6412C96.6781 43.7091 98.6332 39.3052 98.7259 34.4296C98.6332 29.5553 96.6781 25.1569 92.8618 21.2357C89.0456 17.3036 83.9218 14.1854 77.4878 11.8826C79.2098 12.7892 80.8323 13.8077 82.3566 14.9367C89.4655 20.3467 93.0773 26.8435 93.1945 34.4296C93.0663 42.0266 89.4533 48.5316 82.3566 53.9417C80.8323 55.0692 79.2098 56.0877 77.4878 56.9957Z" fill="white"/>
<path fill-rule="evenodd" clip-rule="evenodd" d="M100.137 49.8232C103.837 47.8571 106.781 45.6988 108.968 43.3483C111.643 40.451 112.987 37.4842 113 34.4478C112.987 31.3992 111.643 28.4324 108.968 25.5473C106.781 23.1859 103.837 21.0221 100.137 19.0547C105.21 23.6972 107.78 28.8278 107.851 34.4478C107.78 40.0679 105.21 45.193 100.137 49.8232Z" fill="white"/>
<path d="M5.28765 80.498L10.017 67.9715H10.98H11.9514L16.4507 80.498H15.5389H14.6271L13.3575 76.8679H8.34685L7.03454 80.498H6.16536H5.28765ZM10.9033 69.8122L8.89222 75.3681H12.8376L10.9033 69.8122ZM25.0063 77.2173C24.8472 78.3648 24.441 79.2397 23.7877 79.8419C23.1344 80.4441 22.2652 80.7452 21.1801 80.7452C19.9701 80.7452 19.0043 80.3106 18.2828 79.4414C17.5614 78.5722 17.2006 77.4019 17.2006 75.9306C17.2006 74.4592 17.5727 73.2889 18.3169 72.4197C19.0668 71.5449 20.0723 71.1074 21.3335 71.1074C22.4299 71.1074 23.3048 71.4085 23.9581 72.0107C24.6114 72.6072 24.9608 73.4309 25.0063 74.4819H23.532C23.4696 73.8286 23.2423 73.323 22.8503 72.9651C22.4583 72.6072 21.9357 72.4282 21.2824 72.4282C20.5098 72.4282 19.9019 72.7407 19.4588 73.3656C19.0214 73.9848 18.8026 74.8398 18.8026 75.9306C18.8026 77.0895 19.0072 77.9615 19.4162 78.5466C19.8252 79.1318 20.4331 79.4243 21.2398 79.4243C21.8363 79.4243 22.3334 79.234 22.731 78.8534C23.1344 78.4671 23.4014 77.9217 23.532 77.2173H25.0063ZM33.7322 77.2173C33.5731 78.3648 33.167 79.2397 32.5136 79.8419C31.8603 80.4441 30.9911 80.7452 29.9061 80.7452C28.696 80.7452 27.7303 80.3106 27.0088 79.4414C26.2873 78.5722 25.9266 77.4019 25.9266 75.9306C25.9266 74.4592 26.2987 73.2889 27.0429 72.4197C27.7928 71.5449 28.7983 71.1074 30.0595 71.1074C31.1559 71.1074 32.0308 71.4085 32.6841 72.0107C33.3374 72.6072 33.6868 73.4309 33.7322 74.4819H32.258C32.1955 73.8286 31.9683 73.323 31.5763 72.9651C31.1843 72.6072 30.6616 72.4282 30.0083 72.4282C29.2357 72.4282 28.6279 72.7407 28.1848 73.3656C27.7473 73.9848 27.5286 74.8398 27.5286 75.9306C27.5286 77.0895 27.7331 77.9615 28.1421 78.5466C28.5512 79.1318 29.159 79.4243 29.9657 79.4243C30.5622 79.4243 31.0593 79.234 31.457 78.8534C31.8603 78.4671 32.1273 77.9217 32.258 77.2173H33.7322ZM38.9814 80.7452C37.7202 80.7452 36.6977 80.3021 35.9137 79.4158C35.1354 78.5296 34.7463 77.3678 34.7463 75.9306C34.7463 74.4876 35.1354 73.323 35.9137 72.4368C36.6977 71.5505 37.7202 71.1074 38.9814 71.1074C40.2539 71.1074 41.2794 71.5505 42.0577 72.4368C42.8359 73.323 43.2251 74.4876 43.2251 75.9306C43.2251 77.3678 42.8359 78.5296 42.0577 79.4158C41.2794 80.3021 40.2539 80.7452 38.9814 80.7452ZM38.9814 79.4243C39.7881 79.4243 40.4301 79.1091 40.9073 78.4785C41.3845 77.8479 41.6231 76.9986 41.6231 75.9306C41.6231 74.8625 41.3845 74.0132 40.9073 73.3826C40.4301 72.7464 39.7881 72.4282 38.9814 72.4282C38.1747 72.4282 37.5328 72.7464 37.0556 73.3826C36.584 74.0132 36.3483 74.8625 36.3483 75.9306C36.3483 76.9986 36.584 77.8479 37.0556 78.4785C37.5328 79.1091 38.1747 79.4243 38.9814 79.4243ZM45.1935 80.498V71.3801H45.9179H46.6507V72.9395C46.7814 72.6953 46.9206 72.4737 47.0683 72.2749C47.6477 71.4966 48.3607 71.1074 49.2071 71.1074C49.3492 71.1074 49.494 71.133 49.6417 71.1841V72.7521L49.3264 72.7435C48.497 72.7435 47.8551 72.9935 47.4006 73.4934C46.9518 73.9877 46.7274 74.6949 46.7274 75.6153V80.498H45.9605H45.1935ZM54.2689 80.7452C53.0475 80.7452 52.076 80.2907 51.3545 79.3817C50.6331 78.4671 50.2723 77.2343 50.2723 75.6834C50.2723 74.3143 50.6217 73.2094 51.3205 72.3686C52.0192 71.5278 52.931 71.1074 54.0558 71.1074C55.175 71.1074 56.0612 71.5818 56.7145 72.5305L56.8338 72.7009V67.9715H57.6008H58.3677V80.498H57.6604H56.9446V79.2539L56.7486 79.5351C56.118 80.3418 55.2914 80.7452 54.2689 80.7452ZM54.3541 72.4879C53.4963 72.4879 52.8685 72.7634 52.4708 73.3145C52.0732 73.8598 51.8743 74.729 51.8743 75.922C51.8743 77.0469 52.0874 77.9132 52.5135 78.5211C52.9452 79.1289 53.5588 79.4329 54.3541 79.4329C55.0983 79.4329 55.6976 79.1545 56.1521 78.5978C56.6066 78.0354 56.8338 77.294 56.8338 76.3737C56.8338 75.1295 56.6179 74.1723 56.1862 73.5019C55.7601 72.8259 55.1494 72.4879 54.3541 72.4879ZM67.6987 77.2173C67.5396 78.3648 67.1334 79.2397 66.4801 79.8419C65.8268 80.4441 64.9576 80.7452 63.8725 80.7452C62.6625 80.7452 61.6967 80.3106 60.9752 79.4414C60.2538 78.5722 59.893 77.4019 59.893 75.9306C59.893 74.4592 60.2651 73.2889 61.0093 72.4197C61.7592 71.5449 62.7647 71.1074 64.0259 71.1074C65.1223 71.1074 65.9972 71.4085 66.6505 72.0107C67.3038 72.6072 67.6532 73.4309 67.6987 74.4819H66.2245C66.162 73.8286 65.9347 73.323 65.5427 72.9651C65.1507 72.6072 64.6281 72.4282 63.9748 72.4282C63.2022 72.4282 62.5943 72.7407 62.1512 73.3656C61.7138 73.9848 61.4951 74.8398 61.4951 75.9306C61.4951 77.0895 61.6996 77.9615 62.1086 78.5466C62.5176 79.1318 63.1255 79.4243 63.9322 79.4243C64.5287 79.4243 65.0258 79.234 65.4234 78.8534C65.8268 78.4671 66.0938 77.9217 66.2245 77.2173H67.6987ZM71.6356 80.7452C70.7437 80.7452 70.0364 80.5066 69.5137 80.0294C68.9911 79.5522 68.7298 78.9074 68.7298 78.095C68.7298 77.2769 68.974 76.6265 69.4626 76.1436C69.9568 75.6607 70.6755 75.3596 71.6185 75.2403L73.7063 74.9762C73.8767 74.9591 74.0386 74.9307 74.192 74.8909C74.3908 74.8398 74.5442 74.7376 74.6522 74.5842C74.7601 74.4308 74.8141 74.2376 74.8141 74.0047V73.928C74.8141 73.4395 74.6294 73.0588 74.2602 72.7861C73.8909 72.5078 73.3768 72.3686 72.7178 72.3686C72.0872 72.3686 71.593 72.5163 71.2351 72.8117C70.8828 73.1014 70.6698 73.536 70.5959 74.1155H69.1814C69.2552 73.1156 69.6075 72.3658 70.238 71.8658C70.8686 71.3602 71.7719 71.1074 72.9479 71.1074C74.0557 71.1074 74.8993 71.3489 75.4787 71.8317C76.0582 72.3089 76.3479 73.0077 76.3479 73.928V78.9386C76.3479 79.092 76.3934 79.217 76.4843 79.3136C76.5808 79.4045 76.7087 79.4499 76.8677 79.4499C76.9132 79.4499 76.9785 79.4442 77.0637 79.4329C77.1546 79.4215 77.2512 79.4045 77.3534 79.3817V80.4895C77.2057 80.5463 77.0495 80.5918 76.8848 80.6259C76.72 80.66 76.5808 80.677 76.4672 80.677C75.8878 80.677 75.4674 80.5179 75.206 80.1998C75.0356 79.9896 74.9135 79.6914 74.8396 79.305C74.726 79.4471 74.5953 79.5834 74.4476 79.7141C73.6807 80.4015 72.7434 80.7452 71.6356 80.7452ZM74.8141 76.885V75.8965C74.53 76.0328 74.2147 76.1265 73.8682 76.1777L72.4621 76.3822C71.7236 76.4844 71.1839 76.6577 70.8431 76.902C70.5022 77.1406 70.3318 77.4673 70.3318 77.882C70.3318 78.3933 70.471 78.7881 70.7493 79.0664C71.0277 79.3391 71.4225 79.4755 71.9338 79.4755C72.7405 79.4755 73.4222 79.2568 73.979 78.8193C74.3596 78.5126 74.6124 78.166 74.7374 77.7797C74.7601 77.7059 74.7771 77.5894 74.7885 77.4303C74.8055 77.2656 74.8141 77.0838 74.8141 76.885ZM78.981 80.498V67.9715H79.748H80.5149V80.498H79.748H78.981ZM82.8668 80.498V67.9715H83.6337H84.4007V80.498H83.6337H82.8668ZM86.7696 80.498V71.3801H87.5366H88.3035V80.498H87.5366H86.7696ZM86.7526 67.9715H88.3205V69.7099H86.7526V67.9715ZM90.6043 80.498V71.3801H91.3286H92.0614V72.7265L92.4023 72.2749C93.067 71.4966 93.8992 71.1074 94.8991 71.1074C95.9046 71.1074 96.6801 71.3801 97.2254 71.9255C97.7708 72.4709 98.0435 73.2463 98.0435 74.2518V80.498H97.2766H96.5096V74.7716C96.5096 73.9706 96.3534 73.394 96.041 73.0418C95.7342 72.6839 95.2343 72.5049 94.5412 72.5049C93.8027 72.5049 93.2175 72.7861 92.7858 73.3486C92.354 73.9053 92.1381 74.6609 92.1381 75.6153V80.498H91.3712H90.6043ZM103.659 83.08C104.54 83.08 105.21 82.8017 105.67 82.2449C106.13 81.6939 106.36 80.8872 106.36 79.8249V79.5266L106.352 79.5351C105.721 80.3418 104.898 80.7452 103.881 80.7452C102.659 80.7452 101.688 80.2907 100.966 79.3817C100.245 78.4671 99.8841 77.2343 99.8841 75.6834C99.8841 74.3143 100.239 73.2094 100.949 72.3686C101.659 71.5278 102.588 71.1074 103.736 71.1074C104.832 71.1074 105.701 71.5818 106.343 72.5305L106.454 72.6924V71.3801H107.894V79.8249C107.889 81.3644 107.542 82.5034 106.855 83.2419C106.167 83.9805 105.111 84.3497 103.685 84.3497C102.651 84.3497 101.83 84.1111 101.222 83.6339C100.614 83.1567 100.248 82.4637 100.123 81.5547H101.691C101.782 82.0433 101.997 82.4182 102.338 82.6795C102.685 82.9465 103.125 83.08 103.659 83.08ZM103.957 72.5049C103.1 72.5049 102.472 72.7776 102.074 73.323C101.682 73.8684 101.486 74.7347 101.486 75.922C101.486 77.0412 101.699 77.9047 102.125 78.5126C102.557 79.1147 103.168 79.4158 103.957 79.4158C104.702 79.4158 105.301 79.1375 105.755 78.5807C106.21 78.024 106.437 77.2883 106.437 76.3737C106.437 75.0841 106.23 74.1183 105.815 73.4764C105.406 72.8288 104.787 72.5049 103.957 72.5049Z" fill="white"/>
</svg>
