<svg width="79" height="59" viewBox="0 0 79 59" fill="none" xmlns="http://www.w3.org/2000/svg">
<path fill-rule="evenodd" clip-rule="evenodd" d="M39.4109 4.27148C33.9481 4.40941 29.4032 6.29661 25.7744 9.93308C22.1379 13.5619 20.2507 18.1068 20.1128 23.5696C20.2507 29.0324 22.1379 33.5782 25.7744 37.2061C29.4032 40.8426 33.9481 42.7298 39.4109 42.8677C44.8737 42.7298 49.4195 40.8426 53.0474 37.2061C56.6839 33.5782 58.5711 29.0324 58.709 23.5696C58.5711 18.1068 56.6839 13.5619 53.0474 9.93308C49.4195 6.29661 44.8737 4.40941 39.4109 4.27148ZM39.4109 4.91735C44.6949 5.04672 49.0904 6.86924 52.5975 10.384C56.1122 13.8901 57.9338 18.2856 58.0641 23.5696C57.9338 28.8536 56.1122 33.2491 52.5975 36.7562C49.0904 40.2709 44.6949 42.0925 39.4109 42.2228C34.1269 42.0925 29.7314 40.2709 26.2253 36.7562C22.7105 33.2491 20.888 28.8536 20.7587 23.5696C20.888 18.2856 22.7105 13.8901 26.2253 10.384C29.7314 6.86924 34.1269 5.04672 39.4109 4.91735Z" fill="#2E368F"/>
<path fill-rule="evenodd" clip-rule="evenodd" d="M21.4536 23.5815C21.5839 18.4926 23.337 14.2549 26.7138 10.8705C30.0982 7.49374 34.3358 5.74067 39.4248 5.61035C44.5138 5.74067 48.7476 7.49374 52.1234 10.8705C55.5088 14.2549 57.2657 18.4926 57.396 23.5815C57.2657 28.6705 55.5088 32.9043 52.1234 36.2802C48.7476 39.6655 44.5138 41.4224 39.4248 41.5527C34.3358 41.4224 30.0982 39.6655 26.7138 36.2802C23.337 32.9043 21.5839 28.6705 21.4536 23.5815Z" fill="#2E368F"/>
<path fill-rule="evenodd" clip-rule="evenodd" d="M34.3229 11.0413C34.2497 10.9281 34.1641 10.8501 34.0671 10.8102C33.9776 10.8834 33.8844 10.9196 33.7874 10.9196C33.698 10.7978 33.6771 10.6513 33.7265 10.4811C33.7503 10.3593 33.7303 10.2585 33.6657 10.1767C33.5601 10.1443 33.4545 10.1282 33.3489 10.1282C33.2186 10.1282 33.1377 10.0711 33.1054 9.9579C33.0892 9.83614 33.093 9.71439 33.1178 9.59263C33.1501 9.47849 33.1415 9.3691 33.093 9.26351C33.0198 9.15793 32.9513 9.17029 32.8857 9.30061L32.9713 9.26351C32.9627 9.27207 32.9589 9.28444 32.9589 9.30061C32.8942 9.29205 32.8495 9.31678 32.8248 9.3729C32.7439 9.43854 32.6707 9.51083 32.606 9.59263C32.5252 9.722 32.4196 9.83614 32.2893 9.93316C32.2407 9.97407 32.1922 10.0102 32.1437 10.0426C32.1352 9.88846 32.1314 9.72675 32.1314 9.55553C32.0828 9.56409 32.0334 9.58027 31.9849 9.605C31.9525 9.61261 31.9202 9.62117 31.8878 9.62878C31.8146 9.67729 31.7737 9.74673 31.7661 9.83614C31.6767 10.0473 31.5511 10.2299 31.3885 10.384C31.2829 10.4896 31.1611 10.5629 31.0232 10.6028C31.104 10.717 31.2144 10.7693 31.3523 10.7617C31.4741 10.7531 31.5996 10.7531 31.729 10.7617C31.8507 10.794 31.9525 10.8549 32.0334 10.9443C32.1475 11.0252 32.2445 11.0004 32.3263 10.8711C32.3986 10.7407 32.5042 10.6599 32.6422 10.6275C32.7316 10.6437 32.8086 10.6922 32.8742 10.7731C33.0521 11.0004 33.0569 11.2278 32.8857 11.4551C33.073 11.4713 33.2271 11.5283 33.3489 11.6254C33.308 11.8042 33.211 11.9707 33.0569 12.1247C33.0645 12.2066 33.0521 12.2788 33.0198 12.3445C32.9389 12.3521 32.8581 12.3483 32.7763 12.3321C32.6631 12.3892 32.5813 12.4738 32.5328 12.588C32.4519 12.6688 32.4034 12.7659 32.3872 12.88C32.509 12.8876 32.6307 12.8762 32.7525 12.8429C32.841 12.803 32.9351 12.7868 33.0321 12.7944C33.1453 12.9409 33.1824 13.1359 33.1415 13.3794C33.4098 13.3794 33.6609 13.3299 33.8968 13.2329C34.01 13.1359 34.0062 13.0255 33.8844 12.9038C33.6086 12.7335 33.5068 12.5147 33.58 12.2465C33.6533 12.198 33.7104 12.1286 33.7503 12.0401C33.7589 11.9022 33.815 11.8451 33.9206 11.8689C34.0024 11.9992 34.0956 12.1124 34.2012 12.2104C34.3229 12.178 34.3838 12.0886 34.3838 11.9421C34.3838 11.8204 34.3876 11.7024 34.3962 11.5892C34.4123 11.516 34.4409 11.4551 34.4808 11.4066C34.5293 11.3581 34.5626 11.3096 34.5788 11.2601C34.5217 11.1716 34.4361 11.0984 34.3229 11.0413Z" fill="#8DC641"/>
<path fill-rule="evenodd" clip-rule="evenodd" d="M42.9307 11.9791C43.0125 12.0762 43.0325 12.1979 42.9916 12.3444C43.1704 12.3929 43.3654 12.352 43.5766 12.2226C43.763 12.1817 43.8439 12.08 43.8201 11.9183C43.7554 11.8041 43.6774 11.6947 43.5889 11.5891C43.7021 11.5644 43.783 11.5121 43.8324 11.4312C43.7021 11.3095 43.548 11.2362 43.3692 11.2115C43.3121 11.2039 43.2598 11.1915 43.2113 11.1754C43.1466 11.1668 43.0772 11.1668 43.0039 11.1754L43.041 11.3818C42.9269 11.4065 42.8089 11.4189 42.6872 11.4189C42.6225 11.435 42.5616 11.435 42.5046 11.4189C42.4484 11.3941 42.3876 11.3941 42.3219 11.4189C42.1926 11.6377 42.2449 11.8241 42.4808 11.9791C42.6349 11.9867 42.7852 11.9867 42.9307 11.9791Z" fill="#8DC641"/>
<path fill-rule="evenodd" clip-rule="evenodd" d="M57.3705 23.1443C57.3705 22.9984 57.3667 22.8516 57.3582 22.7048C57.3667 22.8602 57.3705 23.0099 57.3705 23.1566C57.3705 23.1566 57.3705 23.1528 57.3705 23.1443Z" fill="#8DC641"/>
<path fill-rule="evenodd" clip-rule="evenodd" d="M56.5911 18.2605C56.6643 18.4964 56.7328 18.7361 56.7984 18.9796C56.7328 18.7437 56.6643 18.504 56.5911 18.2605Z" fill="#8DC641"/>
<path fill-rule="evenodd" clip-rule="evenodd" d="M56.0076 16.6665C56.1046 16.8938 56.1978 17.125 56.2872 17.3599C56.1978 17.1326 56.1046 16.9015 56.0076 16.6665Z" fill="#8DC641"/>
<path fill-rule="evenodd" clip-rule="evenodd" d="M57.1877 20.9395C57.2286 21.1915 57.261 21.4388 57.2857 21.6823C57.2524 21.4388 57.2201 21.1915 57.1877 20.9395Z" fill="#8DC641"/>
<path fill-rule="evenodd" clip-rule="evenodd" d="M52.5381 35.843C52.4647 35.924 52.3913 36.0012 52.3179 36.0746C52.3913 35.9927 52.4647 35.9155 52.5381 35.843Z" fill="#8DC641"/>
<path fill-rule="evenodd" clip-rule="evenodd" d="M55.8246 28.3662C55.4755 28.1312 55.2558 27.7983 55.1664 27.3683C55.0285 27.0839 54.862 26.8166 54.668 26.5646C54.5215 26.3125 54.4692 26.0414 54.5091 25.7484C54.5338 25.4326 54.5662 25.1121 54.6071 24.7868C54.4853 24.7382 54.3797 24.6812 54.2903 24.6165C54.2903 24.4786 54.2818 24.3406 54.2656 24.2027C54.2333 24.0886 54.2133 23.9754 54.2047 23.8612C54.2133 23.8612 54.2295 23.8945 54.2532 23.9592C54.335 24.1133 54.4244 24.2674 54.5215 24.4215C54.7812 24.7868 55.0085 25.173 55.2035 25.5782C55.3091 25.8864 55.3538 26.2079 55.3376 26.5398C55.3452 26.9546 55.5202 27.2704 55.8608 27.4901C55.9911 27.5548 56.1243 27.5871 56.2622 27.5871C56.5789 26.2963 56.7378 24.957 56.7378 23.5692C56.5504 17.92 54.3835 13.4151 50.2353 10.0544C50.2686 10.4197 50.1507 10.7279 49.8824 10.98C49.6637 11.0856 49.4972 11.2482 49.383 11.467C49.3184 11.7428 49.2052 11.9949 49.0425 12.2222C48.8076 12.4249 48.5717 12.636 48.3367 12.8548C48.2387 12.9689 48.1741 13.0945 48.1417 13.2324C48.1332 13.3542 48.1379 13.4797 48.1541 13.6101C48.1455 13.748 48.117 13.8859 48.0685 14.0238C47.9952 14.1542 47.9553 14.2873 47.9467 14.4252C48.1655 14.4909 48.4176 14.4414 48.702 14.2797C48.9617 14.1656 49.1357 14.2226 49.2251 14.45C49.2251 14.7097 49.306 14.9332 49.4687 15.1196C49.7854 15.2414 49.988 15.1158 50.0774 14.742C50.086 14.4585 50.0898 14.1817 50.0898 13.9144C50.1383 13.7194 50.0936 13.5406 49.9557 13.3789C49.8748 13.2895 49.8216 13.1801 49.7978 13.0498C49.8139 12.9119 49.8748 12.7901 49.9804 12.6845C50.086 12.5466 50.1668 12.3963 50.2239 12.2337C50.2563 12.0634 50.2886 11.8969 50.3209 11.7352C50.5321 11.4917 50.7794 11.5031 51.0638 11.7714C51.2427 12.0957 51.1818 12.4211 50.8812 12.7454C50.8165 13.0622 50.9383 13.2933 51.2465 13.4398C51.49 13.5283 51.7411 13.5777 52.0008 13.5853C52.1558 13.6262 52.2937 13.6063 52.4155 13.5245C52.4554 13.3951 52.4431 13.261 52.3784 13.123C52.5572 13.163 52.7199 13.241 52.8654 13.3542C52.9225 13.4274 52.951 13.5121 52.951 13.6101C53.0157 13.7318 52.9872 13.7927 52.8654 13.7927C52.6381 13.8003 52.4107 13.8003 52.1834 13.7927C52.0293 13.7604 51.9646 13.825 51.9894 13.9877C52.0055 14.0847 51.9846 14.1741 51.9285 14.255C51.8391 14.2959 51.7458 14.3082 51.6479 14.2921C51.4453 14.2426 51.2826 14.2712 51.1609 14.3767C51.1447 14.4747 51.1409 14.5803 51.1485 14.6935C51.1485 14.7829 51.1856 14.8599 51.2588 14.9246C51.3149 14.9893 51.3359 15.0711 51.3197 15.1681C51.3111 15.2328 51.3111 15.2985 51.3197 15.3631C51.3435 15.404 51.3559 15.4487 51.3559 15.4973C51.2588 15.5619 51.1409 15.5743 51.003 15.5334C50.8812 15.5496 50.7671 15.5258 50.6615 15.4602C50.67 15.5334 50.6577 15.6028 50.6253 15.6675C50.5844 15.716 50.5521 15.7693 50.5283 15.8254C50.5197 16.0043 50.4389 16.1136 50.2848 16.1545C50.1954 16.1793 50.1022 16.1793 50.0042 16.1545C49.9148 16.1136 49.8301 16.0689 49.7483 16.0204C49.6028 16.0366 49.4525 16.0851 49.2984 16.1669C49.1281 16.1993 48.9731 16.1669 48.8351 16.0689C48.8114 16.0043 48.8152 15.9396 48.8475 15.8749C48.8637 15.7769 48.8313 15.6961 48.7505 15.6314C48.6449 15.5258 48.5232 15.4849 48.3852 15.5096C48.2064 15.6152 48.1617 15.7607 48.2511 15.9472C48.2102 16.1184 48.0599 16.1831 47.8002 16.1422C47.6946 16.1346 47.6014 16.1631 47.5206 16.2278C47.4797 16.301 47.4435 16.3733 47.4112 16.4466C47.395 16.5683 47.4683 16.6739 47.63 16.7633C47.6547 16.926 47.59 17.043 47.435 17.1162C47.3627 17.1409 47.2894 17.1571 47.2162 17.1647C47.1515 17.1895 47.0944 17.2304 47.0459 17.2865C46.9727 17.3521 46.908 17.4292 46.8509 17.5186C46.8348 17.5909 46.79 17.6356 46.7168 17.6517C46.5713 17.685 46.421 17.6965 46.2669 17.6888C46.1527 17.6727 46.0434 17.685 45.9378 17.725C45.8322 17.8553 45.8569 17.9771 46.011 18.0903C46.2136 18.1882 46.3601 18.3376 46.4495 18.5411C46.4571 18.622 46.4771 18.699 46.5104 18.7723C46.5589 18.8455 46.5551 18.9188 46.498 18.991C46.3763 19.1537 46.2174 19.2346 46.0234 19.2346C45.836 19.2346 45.6981 19.1575 45.6086 19.0034C45.4707 18.9872 45.3376 18.9834 45.2072 18.991C45.1102 18.9749 45.0284 18.9958 44.9637 19.0519C44.9067 19.1252 44.8743 19.2022 44.8667 19.284C44.939 19.3972 45.0493 19.4705 45.1949 19.5028C45.2034 19.6246 45.1625 19.7339 45.0731 19.8319C45.0569 19.888 45.0284 19.9413 44.9885 19.9898C44.9552 20.0307 44.9314 20.0707 44.9152 20.1116C45.0693 20.1924 45.1017 20.298 45.0122 20.4283C44.9552 20.4521 44.9276 20.4892 44.9276 20.5377C45.0084 20.6024 45.1055 20.6557 45.2196 20.6956C45.3414 20.7774 45.4669 20.8621 45.5972 20.9515C45.7513 21.0495 45.913 21.0894 46.0843 21.0732C46.1898 20.9439 46.2992 20.8174 46.4124 20.6956C46.4942 20.6794 46.5665 20.6509 46.6321 20.611C46.6883 20.5463 46.713 20.4645 46.7044 20.3674C46.616 20.2048 46.6036 20.0545 46.6683 19.9166C46.7986 19.8681 46.9318 19.8519 47.0697 19.8681C47.2162 19.8681 47.3541 19.8519 47.4844 19.8195C47.5244 19.7216 47.5168 19.6369 47.4597 19.5637C47.3788 19.499 47.3218 19.4257 47.2894 19.3449C47.3865 19.2231 47.5367 19.1898 47.7394 19.2469C47.9591 19.1176 48.1703 19.089 48.3729 19.1623C48.4052 19.2269 48.4461 19.2878 48.4946 19.3449C48.5755 19.3772 48.6611 19.3848 48.7505 19.3687C48.9455 19.3363 49.1281 19.3449 49.2984 19.3934C49.3631 19.5313 49.4163 19.6854 49.4563 19.8557C49.5295 19.9451 49.6227 19.9898 49.7369 19.9898C49.8586 19.9736 49.9804 19.9775 50.1022 20.0022C50.1744 20.1401 50.183 20.3142 50.1259 20.5253C50.2401 20.4607 50.3209 20.3751 50.3694 20.2695C50.3618 20.181 50.3124 20.1078 50.2239 20.0507C50.0774 19.9042 49.9595 19.7339 49.8701 19.5389C49.7245 19.4172 49.5942 19.284 49.481 19.1375C49.4648 18.9188 49.5742 18.8293 49.8092 18.8693C49.9718 18.8855 50.1345 18.8978 50.2962 18.9064C50.4265 18.8902 50.5359 18.9188 50.6253 18.991C50.7794 19.1461 50.8365 19.3287 50.7956 19.5389C50.7556 19.596 50.7556 19.6493 50.7956 19.6978C50.8688 19.7216 50.9421 19.7663 51.0153 19.8319C51.1209 20.0184 51.1085 20.201 50.9782 20.3798C50.9383 20.7289 51.1085 20.903 51.49 20.903C51.6441 20.8383 51.7373 20.7165 51.7696 20.5377C51.8105 20.3589 51.7782 20.1924 51.6726 20.0383C51.9161 19.9413 52.1672 19.9204 52.4269 19.9775C52.5411 20.026 52.6381 20.0145 52.7199 19.9413C52.7361 19.7948 52.6952 19.6569 52.5981 19.5275C52.5249 19.4296 52.5087 19.3287 52.5487 19.2231C52.6466 19.1337 52.7522 19.0643 52.8654 19.0158C53.0604 18.9026 53.2345 18.7685 53.3895 18.6144C53.4542 18.5088 53.5313 18.4232 53.6207 18.3585C53.7586 18.3423 53.8766 18.3908 53.9736 18.504C54.0706 18.602 54.1809 18.6343 54.3027 18.602C54.375 18.504 54.452 18.4232 54.5338 18.3585C54.6632 18.5126 54.7488 18.7399 54.7897 19.0405C54.9676 19.2022 55.1711 19.3487 55.3985 19.4781C55.5041 19.8842 55.2843 20.1116 54.7402 20.1601C54.2047 20.3142 53.8518 20.1639 53.6816 19.7102C53.4618 19.9204 53.2107 20.0792 52.9263 20.1848C52.5858 20.1763 52.4193 20.3066 52.4269 20.5739C52.5087 20.7042 52.6181 20.8136 52.756 20.903C52.8207 20.9762 52.894 21.0371 52.9748 21.0856C53.1213 21.1341 53.2716 21.1627 53.4257 21.1712C53.5959 21.1712 53.7548 21.2074 53.9003 21.2806C53.9897 21.3862 54.0706 21.5032 54.1438 21.6335C54.2979 21.7467 54.3874 21.8856 54.4121 22.0473C54.3227 22.1291 54.2171 22.1976 54.0953 22.2546C54.0383 22.3764 53.9983 22.4943 53.9736 22.6075C53.8518 22.6808 53.7101 22.697 53.5474 22.6561C53.361 22.6399 53.1822 22.6561 53.0119 22.7046C52.776 22.8101 52.5449 22.8063 52.3175 22.6932C52.2205 22.6199 52.1311 22.5343 52.0502 22.4373C51.9361 22.3479 51.8067 22.3032 51.6602 22.3032C51.49 22.2784 51.3311 22.307 51.1856 22.3888C51.177 22.5181 51.2503 22.6237 51.4044 22.7046C51.1038 22.7207 50.808 22.7331 50.5159 22.7417C50.2886 22.774 50.0689 22.7578 49.8586 22.6932C49.7369 22.6037 49.6389 22.4943 49.5657 22.364C49.4439 22.2832 49.3222 22.2099 49.2004 22.1453C49.1443 21.9988 49.1681 21.8523 49.2737 21.7067C49.2984 21.5032 49.1928 21.4062 48.9569 21.4147C48.7866 21.39 48.6164 21.37 48.4461 21.3538C48.2758 21.3615 48.117 21.4147 47.9715 21.5117C47.7926 21.6421 47.6014 21.7553 47.3988 21.8523C47.18 21.9017 46.9565 21.8932 46.7292 21.8285C46.5503 21.8038 46.3677 21.7914 46.1813 21.7914C46.011 21.7752 45.836 21.7638 45.6581 21.7553C45.3414 21.9017 45.1102 22.1491 44.9637 22.4982C44.8667 22.6437 44.7364 22.7616 44.5737 22.8511C44.3797 22.9243 44.3302 23.0422 44.4282 23.2039C44.6394 23.3257 44.7079 23.4846 44.6346 23.6786C44.4406 23.8251 44.2294 23.9468 44.0021 24.0439C43.8717 24.1495 43.7747 24.2798 43.71 24.4339C43.6206 24.588 43.4941 24.7059 43.3324 24.7868C43.34 25.25 43.2344 25.6876 43.0157 26.1023C42.8939 26.2963 42.813 26.5123 42.7721 26.7472C42.7807 26.9584 42.8939 27.0963 43.1127 27.161C42.8692 27.2751 42.7398 27.4254 42.7236 27.6118C42.7721 27.7174 42.8368 27.8068 42.9186 27.8791C42.951 27.9524 42.9833 28.0256 43.0157 28.0989C43.0803 28.1635 43.1574 28.2168 43.2468 28.2568C43.3362 28.3215 43.3895 28.4156 43.4056 28.5374C43.4056 28.6097 43.4256 28.6753 43.4665 28.7314C43.5226 28.7723 43.5835 28.8085 43.6492 28.8418C43.7547 28.9302 43.827 29.0406 43.8679 29.1699C43.8109 29.4296 43.8927 29.6084 44.1114 29.7055C44.3226 29.714 44.5214 29.7663 44.7079 29.8643C44.8458 30.026 45.0122 30.0993 45.2072 30.0831C45.3128 29.9613 45.4308 29.8557 45.5601 29.7663C45.7466 29.7663 45.9416 29.7625 46.1451 29.7549C46.3725 29.7216 46.5951 29.6608 46.8148 29.5723C46.9689 29.4581 47.1353 29.3735 47.3132 29.3164C47.5168 29.3402 47.5938 29.4581 47.5453 29.6693C47.4312 29.929 47.5006 30.0955 47.7517 30.1687C47.9467 30.0707 48.1046 30.0831 48.2264 30.2048C48.292 30.3751 48.2996 30.5463 48.2511 30.7166C48.2349 30.8136 48.1988 30.903 48.1417 30.9839C48.0846 31.0495 48.0723 31.118 48.1046 31.1912C48.194 31.2721 48.2673 31.3577 48.3243 31.4471C48.332 31.5689 48.2834 31.6659 48.1779 31.7391C48.0808 31.82 48.0485 31.918 48.0808 32.0312C48.1541 32.1044 48.2425 32.1615 48.3481 32.2014C48.4699 32.3317 48.6126 32.4411 48.7743 32.5305C48.8561 32.7826 48.8846 33.0461 48.8599 33.322C48.9084 33.4114 48.9655 33.496 49.0301 33.5778C49.1034 33.7072 49.1319 33.8375 49.1158 33.9669C48.9854 34.2189 48.7866 34.4177 48.5193 34.5642C48.4375 34.6289 48.3976 34.7136 48.3976 34.8192C48.3243 34.9086 48.2188 34.9656 48.0808 34.9904C48.3481 35.388 48.5108 35.8217 48.5679 36.2926C48.527 36.6093 48.4699 36.9223 48.3976 37.2305C48.4052 37.5063 48.4499 37.7822 48.5308 38.058C48.5469 38.1313 48.5555 38.2045 48.5555 38.2778C52.2329 35.9397 54.7288 32.6609 56.0434 28.4394C55.9702 28.4232 55.8969 28.3995 55.8246 28.3662Z" fill="#8DC641"/>
<path fill-rule="evenodd" clip-rule="evenodd" d="M34.0416 39.6409C34.131 39.5277 34.2404 39.4382 34.3707 39.3736C34.501 39.3574 34.6142 39.3127 34.7112 39.2394C34.6551 39.0121 34.5124 38.7762 34.2851 38.5327C34.4801 38.4109 34.7559 38.4033 35.1136 38.5089C35.3248 38.3872 35.4703 38.1836 35.5521 37.9001C35.7709 37.7375 35.925 37.5387 36.0144 37.3037C36.0229 37.1734 36.0553 37.0517 36.1114 36.9385C36.217 36.8243 36.3473 36.7558 36.5014 36.7311C36.8182 36.7064 37.0579 36.5646 37.2196 36.305C37.3898 36.0453 37.5325 35.7732 37.6457 35.4888C37.7028 35.1569 37.7189 34.8277 37.6942 34.5034C37.7675 34.2437 37.9301 34.0487 38.1812 33.9184C38.3762 33.7643 38.5227 33.574 38.6197 33.3467C38.7986 33.0785 38.8471 32.8026 38.7662 32.5182C38.5303 32.2994 38.263 32.113 37.9625 31.9579C37.776 31.7306 37.5449 31.6012 37.2681 31.5689C36.9922 31.5927 36.7364 31.5366 36.5014 31.3986C36.3958 31.3254 36.2826 31.2721 36.1609 31.2398C36.0306 31.2322 35.8964 31.2198 35.7585 31.2036C35.6529 31.0495 35.6691 30.8422 35.807 30.5825C35.7832 30.4284 35.71 30.2981 35.5882 30.1925C35.4579 30.0631 35.3409 29.9167 35.2353 29.7549C35.1707 29.6085 35.0765 29.4867 34.9547 29.3897C34.8168 29.3326 34.6751 29.3364 34.5286 29.4011C34.3907 29.4667 34.2527 29.4705 34.1148 29.4135C34.0178 29.2917 33.9769 29.15 33.9931 28.9873C33.8475 28.9711 33.7134 28.9388 33.5917 28.8903C33.527 28.8085 33.4613 28.7276 33.3967 28.6468C33.3558 28.6306 33.3158 28.6059 33.2749 28.5735C33.2587 28.5326 33.234 28.4927 33.2017 28.4518C33.1531 28.3053 33.0561 28.233 32.9096 28.233C32.6091 28.4109 32.3132 28.4518 32.0212 28.3548C31.9071 28.273 31.7729 28.2444 31.6188 28.2692C31.4486 28.2692 31.2859 28.2977 31.1318 28.3548C31.0424 28.3709 30.9777 28.4109 30.9368 28.4765C31.0186 28.5165 31.0833 28.5735 31.1318 28.6468C31.0833 28.6953 31.0186 28.7077 30.9368 28.6829C30.6695 28.643 30.4051 28.6097 30.1454 28.5859C29.8857 28.6097 29.5614 28.6182 29.1714 28.6097C28.7738 28.5935 28.5788 28.4109 28.5873 28.0618C28.7177 27.746 28.6644 27.4863 28.4294 27.2828C28.088 27.1933 27.8445 27.0231 27.6989 26.772C27.8045 26.4628 27.9015 26.1508 27.9909 25.8341C27.8121 25.6391 27.6048 25.6923 27.3698 25.992C27.1834 26.3334 26.9189 26.5161 26.5784 26.5399C26.2778 26.3211 26.1037 26.0167 26.0552 25.6267C26.0219 25.4812 25.9734 25.3594 25.9087 25.2614C25.9173 25.2538 25.9211 25.2453 25.9211 25.2377C25.9211 25.2453 25.9173 25.25 25.9087 25.25C25.9249 25.1444 25.9335 25.0389 25.9335 24.9333C25.9335 24.7953 25.9982 24.7135 26.1275 24.6898C26.2417 24.6736 26.2702 24.6165 26.2131 24.5195C26.1399 24.3892 26.1199 24.2598 26.1523 24.1295C26.2987 23.9183 26.5052 23.789 26.7734 23.7395C26.9028 23.6586 27.0407 23.5978 27.1872 23.5569C27.3089 23.5654 27.4307 23.5854 27.5524 23.6177C27.6742 23.6263 27.776 23.5854 27.8568 23.496C27.8977 23.4151 27.9015 23.3257 27.8692 23.2287C28.0309 23.066 28.2582 23.0461 28.5512 23.1678C28.6967 23.1517 28.8309 23.1802 28.9526 23.2525C29.0097 23.3343 29.0582 23.4237 29.0991 23.5207C29.1714 23.5854 29.2532 23.6425 29.3426 23.691C29.4073 23.7966 29.4197 23.9145 29.3788 24.0439C29.4758 24.3692 29.6223 24.3977 29.8173 24.1295C29.8249 24.0239 29.7802 23.9383 29.6831 23.8736C29.6023 23.7766 29.5699 23.6625 29.5861 23.5331C29.529 23.281 29.5367 23.0337 29.6099 22.7902C29.7402 22.6038 29.9305 22.5305 30.1825 22.5714C30.3281 22.5629 30.4222 22.4944 30.4622 22.3641C30.4707 22.2337 30.4745 22.1044 30.4745 21.9741C30.6772 21.7553 30.6981 21.5565 30.5354 21.3777C30.4298 21.3291 30.3813 21.2521 30.3889 21.1465C30.4137 21 30.4784 20.8783 30.5839 20.7812C30.6572 20.6757 30.7504 20.611 30.8645 20.5862C30.9368 20.6595 30.9901 20.7527 31.0224 20.8669C31.1604 20.9639 31.266 20.9315 31.3392 20.7689C31.3392 20.6557 31.363 20.5501 31.4124 20.4521C31.5342 20.3637 31.6598 20.2819 31.7891 20.2086C31.8947 20.1202 31.9679 20.0098 32.0088 19.8804C32.0488 19.7264 32.1144 19.5884 32.2038 19.4667C32.2923 19.3611 32.3979 19.2631 32.5196 19.1737C32.7793 19.0767 33.04 18.9673 33.2996 18.8455C33.2178 18.9673 33.2102 19.0805 33.2749 19.1861C33.3881 19.2108 33.4899 19.1737 33.5793 19.0767C33.7657 18.9464 33.9569 18.8294 34.1519 18.7238C34.2813 18.545 34.1681 18.4841 33.8104 18.5411C33.6972 18.5735 33.604 18.5488 33.5308 18.4679C33.4899 18.3785 33.4775 18.2767 33.4937 18.1635C33.4775 18.1635 33.4575 18.1597 33.4328 18.1512C33.4414 18.0294 33.4414 17.92 33.4328 17.823C33.311 17.7983 33.2017 17.8553 33.1046 17.9933C33.0152 18.0988 32.9258 18.0988 32.8364 17.9933C32.845 17.8306 32.9458 17.7126 33.1408 17.6404C33.3681 17.4454 33.604 17.2703 33.8475 17.1162C33.9531 17.0763 34.0701 17.0639 34.2004 17.0801C34.3136 17.0715 34.4278 17.0715 34.541 17.0801C34.541 17.1771 34.5448 17.2703 34.5533 17.3597C34.6836 17.2703 34.7968 17.1647 34.8939 17.043C34.9348 17.0107 34.9709 16.9745 35.0042 16.9336C35.028 16.8604 35.0442 16.7881 35.0527 16.7148C35.126 16.633 35.2144 16.6054 35.32 16.6292C35.3771 16.5969 35.4256 16.5484 35.4665 16.4837C35.5559 16.4019 35.6329 16.3087 35.6976 16.2031C35.6082 16.1631 35.5074 16.1298 35.3932 16.1061C35.3286 16.0652 35.2962 16.0043 35.2962 15.9234C34.9633 16.0366 34.6913 15.9719 34.4801 15.7284C34.3745 15.4041 34.3345 15.0626 34.3583 14.7059C34.3507 14.4785 34.2366 14.3929 34.0178 14.45C33.7581 14.4985 33.5308 14.4376 33.3358 14.2674C33.157 14.0239 32.9382 13.8374 32.6785 13.7071C32.3456 13.7394 32.0897 13.9107 31.9109 14.2189C31.6921 14.4785 31.5294 14.7629 31.4239 15.0711C31.3839 15.2985 31.3677 15.5296 31.3753 15.7646C31.3516 16.146 31.266 16.5113 31.1195 16.8604C31.0139 17.12 30.9007 17.1448 30.7789 16.9336C30.7304 16.6501 30.641 16.3857 30.5107 16.1422C30.3166 15.9967 30.0893 15.9396 29.8296 15.9719C29.5129 15.9719 29.2732 15.8416 29.1105 15.5819C28.9726 15.3061 28.9564 15.0226 29.062 14.7297C29.1514 14.5023 29.2656 14.2835 29.4035 14.0724C29.5414 13.8051 29.6917 13.5454 29.8534 13.2933C30.0731 13.0013 30.3442 12.7702 30.6695 12.5989C30.9368 12.5105 31.1528 12.3602 31.3145 12.149C31.3392 11.9131 31.2212 11.7752 30.9616 11.7352C30.6286 11.6858 30.3119 11.7467 30.0123 11.9179C29.7687 12.0796 29.5043 12.1975 29.2209 12.2708C28.9526 12.2784 28.6806 12.2622 28.4047 12.2223C28.1698 12.2223 27.9424 12.2499 27.7227 12.3069C27.7227 12.1776 27.7436 12.0634 27.7836 11.9664C27.8977 11.8285 28.0356 11.7143 28.1974 11.6249C28.3115 11.585 28.3885 11.5193 28.4294 11.4309C28.4532 11.2929 28.5265 11.2321 28.6482 11.2482C28.7129 11.3367 28.7947 11.3938 28.8917 11.4185C28.965 11.3538 29.0011 11.2644 29.0011 11.1503C28.9279 10.9391 28.9241 10.7565 28.9888 10.6024C29.1191 10.57 29.257 10.5624 29.4035 10.5786C29.5091 10.5948 29.5899 10.6594 29.647 10.7726C29.7687 10.8135 29.8819 10.7888 29.9875 10.7003C30.0123 10.6271 29.9961 10.55 29.939 10.4682C29.9305 10.2742 30.0398 10.1401 30.2672 10.0668C30.3404 10.0098 30.4099 9.94508 30.4745 9.87183C30.5154 9.78242 30.4869 9.71013 30.3889 9.65305C30.2919 9.40098 30.4336 9.21455 30.8151 9.09279C30.9454 8.97104 31.0833 8.9016 31.2298 8.88543C31.2698 8.9834 31.2821 9.08899 31.266 9.20218C31.3554 9.24308 31.4486 9.25545 31.5456 9.23928C31.5789 9.21455 31.6065 9.1784 31.6312 9.12894C31.6721 9.08043 31.7206 9.04048 31.7777 9.00718C31.8338 8.91872 31.9033 8.88162 31.9841 8.8978C32.0488 8.93014 32.1021 8.91872 32.143 8.86165C32.1991 8.81314 32.26 8.76367 32.3256 8.71516C32.1468 8.73133 32.0003 8.68663 31.8871 8.58104C31.8624 8.45929 31.8871 8.3499 31.9603 8.25288C32.025 8.17107 32.0983 8.10639 32.1791 8.05788C32.3009 8.02554 32.3817 7.96085 32.4226 7.86288C32.4312 7.82293 32.4312 7.77822 32.4226 7.72876C29.4197 9.08423 26.9884 11.1056 25.1297 13.7927C23.2787 16.4713 22.2723 19.539 22.1096 22.9976C22.2723 23.1193 22.4226 23.261 22.5605 23.4237C22.6822 23.5293 22.8202 23.5902 22.9743 23.6063C23.4128 23.866 23.6563 24.2874 23.7048 24.8724C23.8189 25.1644 24.0054 25.3918 24.2651 25.5544C24.2165 25.8303 24.306 26.0738 24.5333 26.2849C24.7606 26.5123 25.0279 26.6664 25.3361 26.7472C25.669 26.8281 25.9982 26.9213 26.3225 27.0269C26.5746 27.1486 26.8219 27.2866 27.0654 27.4416C27.3822 27.5634 27.6742 27.7175 27.9424 27.9039C28.1203 28.1312 28.2544 28.3871 28.3438 28.6706C28.5141 28.9635 28.7662 29.0729 29.0991 28.9997C29.3179 28.8618 29.5367 28.8332 29.7564 28.9141C29.7887 28.9388 29.8173 28.9635 29.841 28.9873C29.8249 29.1823 29.8334 29.3688 29.8658 29.5476C29.8819 29.637 29.8857 29.7264 29.8781 29.8158C29.9181 29.9214 29.939 30.0222 29.939 30.1202C29.8819 30.1925 29.8049 30.2296 29.7079 30.2296C29.5937 30.2781 29.5205 30.3637 29.4881 30.4855C29.4558 30.5911 29.452 30.7004 29.4758 30.8136C29.5005 30.9031 29.4758 30.9763 29.4035 31.0334C29.1761 31.2274 29.18 31.3825 29.4149 31.4957C29.5129 31.4957 29.5776 31.5318 29.6099 31.605C29.6185 31.7515 29.5528 31.8486 29.4149 31.8971C29.3017 31.8647 29.2247 31.8857 29.1838 31.9579C29.2161 32.0559 29.2817 32.1368 29.3788 32.2015C29.4434 32.3318 29.5167 32.4573 29.5975 32.5791C29.744 32.6685 29.8496 32.7941 29.9143 32.9567C29.9466 33.087 29.9752 33.2164 29.9999 33.3467C30.0161 33.4523 30.0237 33.5617 30.0237 33.6749C30.2672 34.0002 30.5602 34.2675 30.9007 34.4786C31.3963 34.5272 31.6835 34.7222 31.7653 35.0627C31.6674 35.2253 31.6188 35.4004 31.6188 35.5868C31.6188 35.7409 31.5951 35.895 31.5456 36.0491C31.5057 36.2441 31.5741 36.3858 31.753 36.4752C31.8995 36.5894 31.9318 36.7397 31.85 36.9261C31.8177 37.1534 31.81 37.376 31.8262 37.5958C31.7853 37.7413 31.733 37.8878 31.6674 38.0343C31.6921 38.156 31.753 38.2654 31.85 38.3624C31.8995 38.5574 31.8909 38.7524 31.8262 38.9474C31.8177 39.0121 31.8138 39.0768 31.8138 39.1415C32.3579 39.4011 32.9096 39.6371 33.4699 39.8482C33.5184 39.7664 33.5631 39.6979 33.604 39.6409C33.7258 39.5029 33.8713 39.5029 34.0416 39.6409Z" fill="#8DC641"/>
<path fill-rule="evenodd" clip-rule="evenodd" d="M21.4651 22.9857C21.4651 22.9771 21.4651 22.9771 21.4651 22.9857C21.4737 22.937 21.4775 22.8875 21.4775 22.8389C21.4689 22.8875 21.4651 22.937 21.4651 22.9857Z" fill="#8DC641"/>
<path fill-rule="evenodd" clip-rule="evenodd" d="M32.5927 40.1892C32.7715 40.271 32.9541 40.3433 33.1406 40.4089C32.9541 40.3433 32.7677 40.271 32.5803 40.1892C32.5803 40.1892 32.5851 40.1892 32.5927 40.1892Z" fill="#8DC641"/>
<path fill-rule="evenodd" clip-rule="evenodd" d="M33.5675 40.5668C33.5675 40.5582 33.5675 40.5544 33.5675 40.5544C33.5027 40.5382 33.4378 40.5182 33.3721 40.4934C33.4378 40.5182 33.5027 40.542 33.5675 40.5668Z" fill="#8DC641"/>
<path fill-rule="evenodd" clip-rule="evenodd" d="M30.9255 7.72955C31.0638 7.66473 31.202 7.5961 31.3402 7.52271C31.202 7.58752 31.0638 7.65711 30.9255 7.72955Z" fill="#8DC641"/>
<path fill-rule="evenodd" clip-rule="evenodd" d="M21.8191 19.917C21.8762 19.6497 21.937 19.39 22.0017 19.1379C21.937 19.3976 21.8762 19.6573 21.8191 19.917Z" fill="#8DC641"/>
<path fill-rule="evenodd" clip-rule="evenodd" d="M22.6823 17.0319C22.6575 17.0967 22.6337 17.1615 22.6089 17.2263C22.6337 17.1539 22.6623 17.0805 22.6947 17.0071C22.6947 17.0157 22.6909 17.0233 22.6823 17.0319Z" fill="#8DC641"/>
<path fill-rule="evenodd" clip-rule="evenodd" d="M22.3296 18.007C22.3782 17.8602 22.4306 17.7096 22.4878 17.5552C22.4306 17.702 22.3782 17.8516 22.3296 18.007Z" fill="#8DC641"/>
<path fill-rule="evenodd" clip-rule="evenodd" d="M32.3274 7.05908C32.2054 7.11627 32.0786 7.17347 31.949 7.23066C32.0786 7.17347 32.2092 7.11627 32.3388 7.05908C32.3312 7.05908 32.3274 7.05908 32.3274 7.05908Z" fill="#8DC641"/>
<path fill-rule="evenodd" clip-rule="evenodd" d="M36.769 0.205178C37.0126 0.164276 37.2599 0.131935 37.511 0.108154C37.2675 0.131935 37.0202 0.164276 36.769 0.205178Z" fill="#8DC641"/>
<path fill-rule="evenodd" clip-rule="evenodd" d="M35.4787 6.853C35.6166 6.87678 35.6975 6.96619 35.7222 7.12029C35.7622 7.24204 35.7707 7.3638 35.746 7.48555C35.6737 7.5588 35.6613 7.6444 35.7098 7.74143C35.7831 7.80611 35.823 7.88791 35.8316 7.98494C35.7907 8.11525 35.7222 8.23225 35.6242 8.33784C35.7793 8.33784 35.9334 8.33784 36.0875 8.33784C36.1769 8.36257 36.2577 8.3911 36.331 8.42344C36.4765 8.40727 36.5498 8.47196 36.5498 8.61844C36.5659 8.84578 36.5583 9.07312 36.526 9.30046C36.7124 9.30046 36.8951 9.28429 37.0739 9.251C37.2841 9.251 37.3659 9.34897 37.3174 9.54397C37.2679 9.62482 37.228 9.70567 37.1956 9.78748C37.1956 9.86833 37.1994 9.94918 37.207 10.031C37.248 10.1527 37.345 10.2336 37.5 10.2745C37.54 10.4609 37.4182 10.5665 37.1348 10.5903C37.0691 10.5903 37.0206 10.6188 36.9883 10.6759C36.9236 10.7653 36.838 10.8386 36.7324 10.8947C36.4889 10.928 36.4042 11.0288 36.4765 11.1991C36.5821 11.2647 36.7039 11.2847 36.8418 11.2599C37.0044 11.2523 37.1671 11.2523 37.3288 11.2599C37.2318 11.3903 37.1224 11.5035 37.0006 11.6014C36.9027 11.6585 36.8056 11.7108 36.7086 11.7593C36.5374 11.9058 36.5659 12.0399 36.7933 12.1617C36.9968 12.2502 37.0853 12.4004 37.0615 12.6116C37.0292 12.7981 37.0653 12.9693 37.1709 13.1234C37.3174 13.2204 37.4791 13.2527 37.6579 13.2204C37.8044 13.4154 37.9747 13.4725 38.1697 13.3907C38.4294 13.1471 38.5911 12.8513 38.6567 12.5022C38.7128 12.332 38.7052 12.1655 38.632 12.0028C38.5673 11.8811 38.5673 11.7631 38.632 11.6499C38.7375 11.5282 38.8669 11.4759 39.022 11.492C39.1104 11.5406 39.1998 11.5929 39.2892 11.6499C39.4196 11.6499 39.5413 11.6014 39.6545 11.5035C39.6707 11.4473 39.6869 11.3941 39.703 11.3456C39.703 11.2809 39.703 11.22 39.703 11.1629C39.8086 11.025 39.9513 10.9717 40.1292 11.005C40.2024 11.0212 40.2718 11.0164 40.3365 10.9927C40.3774 10.9518 40.4174 10.9071 40.4583 10.8585C40.6124 10.7777 40.7712 10.7453 40.9329 10.7615C41.0956 10.7615 41.225 10.7044 41.3229 10.5903C41.3305 10.5342 41.3429 10.4733 41.3591 10.4077C41.3914 10.343 41.4447 10.2945 41.5179 10.2621C41.5902 10.2697 41.6597 10.2859 41.7243 10.3106C41.7814 10.2859 41.8261 10.2536 41.8585 10.2136C41.8908 10.1565 41.9279 10.108 41.9678 10.0671C42.0164 10.0348 42.0535 9.99009 42.0772 9.93301C41.8099 9.8436 41.5579 9.7266 41.3229 9.58011C41.2411 9.4498 41.2135 9.30426 41.2373 9.14161C41.1565 9.134 41.0756 9.134 40.9938 9.14161C40.913 9.12544 40.8321 9.10546 40.7503 9.08073C40.9367 8.88573 41.1603 8.75637 41.42 8.69169C41.5417 8.74781 41.6673 8.80868 41.7976 8.87432C42.0325 8.73639 42.1505 8.50905 42.1505 8.1923C42.2808 8.14379 42.4064 8.09052 42.5281 8.03345C42.6014 7.92026 42.5852 7.81087 42.4796 7.70528C42.3978 7.61587 42.3578 7.51028 42.3578 7.38853C42.4387 7.26678 42.5605 7.19353 42.7231 7.16975C42.9095 7.14502 42.9666 7.07558 42.8934 6.96239C42.6746 6.88915 42.4996 6.77976 42.3702 6.63327C42.3702 6.59332 42.394 6.55622 42.4425 6.52388C41.4609 6.34505 40.4497 6.25659 39.411 6.25659C37.9176 6.25659 36.4813 6.43922 35.1011 6.80449C35.2143 6.853 35.3408 6.86917 35.4787 6.853Z" fill="#8DC641"/>
<path fill-rule="evenodd" clip-rule="evenodd" d="M38.0859 0.0585938C37.9724 0.0671724 37.8581 0.0795639 37.7446 0.0957681C37.8581 0.0795639 37.9763 0.0671724 38.0983 0.0585938C38.0897 0.0585938 38.0859 0.0585938 38.0859 0.0585938Z" fill="#8DC641"/>
<path fill-rule="evenodd" clip-rule="evenodd" d="M35.5889 0.412294C35.5889 0.419919 35.5889 0.423732 35.5889 0.423732C35.6213 0.416107 35.6499 0.407528 35.6747 0.399902C35.6499 0.407528 35.6213 0.412294 35.5889 0.412294Z" fill="#8DC641"/>
<path fill-rule="evenodd" clip-rule="evenodd" d="M31.3024 25.9562C31.1892 25.8991 31.1036 25.8097 31.0475 25.688C31.0313 25.5662 31.019 25.4407 31.0104 25.3113C30.8725 25.3027 30.7345 25.2989 30.5966 25.2989C30.4834 25.2828 30.3693 25.2542 30.2561 25.2133C30.2561 25.1972 30.2513 25.181 30.2437 25.1648L30.1705 25.0916C29.927 25.0754 29.6958 25.1163 29.4761 25.2133C29.1765 25.2951 29.0994 25.4207 29.245 25.591C29.399 25.6642 29.5655 25.7127 29.7443 25.7374C29.8823 25.8097 30.0202 25.8792 30.1581 25.9439C30.1743 26.0085 30.1828 26.0742 30.1828 26.1389C30.4587 26.1636 30.7345 26.1674 31.0104 26.1512C31.116 26.1265 31.1645 26.1674 31.1569 26.273C31.1569 26.4185 31.1607 26.5612 31.1692 26.6991C31.388 26.6582 31.583 26.5488 31.7533 26.37C31.8998 26.2891 32.0453 26.2121 32.1918 26.1389C31.8665 26.1959 31.5707 26.135 31.3024 25.9562Z" fill="#8DC641"/>
<path fill-rule="evenodd" clip-rule="evenodd" d="M46.1567 15.7039C46.1729 15.9968 46.0074 16.1956 45.6583 16.3012C45.4709 16.6256 45.5727 16.7882 45.9627 16.7882C46.1082 16.7226 46.2223 16.6256 46.3032 16.4953C46.4164 16.3821 46.5305 16.2765 46.6437 16.1795C46.8387 15.936 46.8425 15.6763 46.6561 15.3995C46.4535 15.1398 46.3194 14.8516 46.2547 14.5358C46.3603 14.1943 46.2709 13.9432 45.9864 13.7805V13.927C45.9864 13.9023 45.9826 13.8823 45.9741 13.8661C45.7962 13.85 45.6174 13.8699 45.4386 13.927C45.3415 14.3807 45.3701 14.8154 45.5242 15.2292C45.7515 15.3595 45.9627 15.5174 46.1567 15.7039Z" fill="#8DC641"/>
<path fill-rule="evenodd" clip-rule="evenodd" d="M44.4046 16.3128C44.689 16.4345 44.8754 16.3698 44.9648 16.1187C44.9325 15.859 44.8269 15.6155 44.6481 15.3882V15.4605C44.3646 15.3635 44.1487 15.4852 44.0032 15.8257C44.0032 16.1025 44.1373 16.2642 44.4046 16.3128Z" fill="#8DC641"/>
<path fill-rule="evenodd" clip-rule="evenodd" d="M24.7882 39.3127C20.2994 37.7052 16.7248 35.5297 14.0623 32.7865C11.3999 30.0432 10.0359 26.9708 9.97119 23.5692C10.0359 20.1687 11.3999 17.1001 14.0623 14.3644C16.7248 11.6211 20.2994 9.4457 24.7882 7.83911C23.5792 8.47167 22.4425 9.18222 21.379 9.96982C16.428 13.7442 13.912 18.2767 13.8302 23.5692C13.912 28.8694 16.428 33.4076 21.379 37.182C22.4425 37.9686 23.5792 38.6792 24.7882 39.3127Z" fill="#8DC641"/>
<path fill-rule="evenodd" clip-rule="evenodd" d="M8.97275 34.3087C6.39212 32.9371 4.33371 31.4313 2.80036 29.7914C0.940746 27.7701 0.00760967 25.7003 0 23.5819C0.00760967 21.455 0.940746 19.3852 2.80036 17.3724C4.33371 15.7249 6.39212 14.2154 8.97275 12.8428C5.42569 16.0816 3.63171 19.661 3.59176 23.5819C3.63171 27.5028 5.42569 31.0784 8.97275 34.3087Z" fill="#8DC641"/>
<path fill-rule="evenodd" clip-rule="evenodd" d="M54.0586 39.3127C58.5473 37.7052 62.122 35.5297 64.7844 32.7865C67.4469 30.0432 68.8109 26.9708 68.8756 23.5692C68.8109 20.1687 67.4469 17.1001 64.7844 14.3644C62.122 11.6211 58.5473 9.4457 54.0586 7.83911C55.26 8.47167 56.3919 9.18222 57.4554 9.96982C62.415 13.7442 64.9347 18.2767 65.0165 23.5692C64.9271 28.8694 62.4064 33.4076 57.4554 37.182C56.3919 37.9686 55.26 38.6792 54.0586 39.3127Z" fill="#8DC641"/>
<path fill-rule="evenodd" clip-rule="evenodd" d="M69.8618 34.3087C72.4434 32.9371 74.4971 31.4313 76.0228 29.7914C77.8891 27.7701 78.827 25.7003 78.8355 23.5819C78.827 21.455 77.8891 19.3852 76.0228 17.3724C74.4971 15.7249 72.4434 14.2154 69.8618 12.8428C73.4013 16.0816 75.1943 19.661 75.2438 23.5819C75.1943 27.5028 73.4013 31.0784 69.8618 34.3087Z" fill="#8DC641"/>
<path d="M3.68974 55.4539L6.98925 46.7146H7.66104H8.33877L11.4778 55.4539H10.8416H10.2055L9.31971 52.9213H5.82401L4.90848 55.4539H4.30208H3.68974ZM7.60753 47.9988L6.2045 51.8749H8.95706L7.60753 47.9988ZM17.4466 53.165C17.3356 53.9656 17.0522 54.576 16.5965 54.9961C16.1407 55.4162 15.5343 55.6263 14.7773 55.6263C13.9331 55.6263 13.2593 55.3231 12.7559 54.7167C12.2526 54.1103 12.0009 53.2938 12.0009 52.2673C12.0009 51.2408 12.2605 50.4243 12.7797 49.8179C13.3029 49.2076 14.0044 48.9024 14.8843 48.9024C15.6492 48.9024 16.2596 49.1125 16.7154 49.5326C17.1711 49.9487 17.4149 50.5234 17.4466 51.2566H16.4181C16.3745 50.8009 16.216 50.4481 15.9425 50.1984C15.669 49.9487 15.3044 49.8239 14.8486 49.8239C14.3096 49.8239 13.8855 50.0419 13.5764 50.4778C13.2712 50.9099 13.1186 51.5063 13.1186 52.2673C13.1186 53.0758 13.2613 53.6842 13.5466 54.0924C13.832 54.5007 14.2561 54.7048 14.8189 54.7048C15.235 54.7048 15.5818 54.572 15.8593 54.3065C16.1407 54.037 16.3269 53.6565 16.4181 53.165H17.4466ZM23.5343 53.165C23.4234 53.9656 23.14 54.576 22.6842 54.9961C22.2284 55.4162 21.622 55.6263 20.865 55.6263C20.0208 55.6263 19.347 55.3231 18.8437 54.7167C18.3403 54.1103 18.0887 53.2938 18.0887 52.2673C18.0887 51.2408 18.3483 50.4243 18.8675 49.8179C19.3906 49.2076 20.0921 48.9024 20.972 48.9024C21.7369 48.9024 22.3473 49.1125 22.8031 49.5326C23.2589 49.9487 23.5026 50.5234 23.5343 51.2566H22.5058C22.4622 50.8009 22.3037 50.4481 22.0302 50.1984C21.7568 49.9487 21.3921 49.8239 20.9363 49.8239C20.3973 49.8239 19.9732 50.0419 19.6641 50.4778C19.3589 50.9099 19.2063 51.5063 19.2063 52.2673C19.2063 53.0758 19.349 53.6842 19.6344 54.0924C19.9197 54.5007 20.3438 54.7048 20.9066 54.7048C21.3228 54.7048 21.6696 54.572 21.947 54.3065C22.2284 54.037 22.4147 53.6565 22.5058 53.165H23.5343ZM27.1965 55.6263C26.3166 55.6263 25.6032 55.3171 25.0563 54.6988C24.5133 54.0805 24.2418 53.27 24.2418 52.2673C24.2418 51.2606 24.5133 50.4481 25.0563 49.8298C25.6032 49.2116 26.3166 48.9024 27.1965 48.9024C28.0843 48.9024 28.7997 49.2116 29.3426 49.8298C29.8856 50.4481 30.1571 51.2606 30.1571 52.2673C30.1571 53.27 29.8856 54.0805 29.3426 54.6988C28.7997 55.3171 28.0843 55.6263 27.1965 55.6263ZM27.1965 54.7048C27.7593 54.7048 28.2071 54.4848 28.5401 54.0449C28.873 53.6049 29.0394 53.0124 29.0394 52.2673C29.0394 51.5222 28.873 50.9297 28.5401 50.4897C28.2071 50.0458 27.7593 49.8239 27.1965 49.8239C26.6337 49.8239 26.1858 50.0458 25.8529 50.4897C25.5239 50.9297 25.3595 51.5222 25.3595 52.2673C25.3595 53.0124 25.5239 53.6049 25.8529 54.0449C26.1858 54.4848 26.6337 54.7048 27.1965 54.7048ZM31.5304 55.4539V49.0926H32.0358H32.547V50.1806C32.6382 50.0102 32.7353 49.8556 32.8383 49.7169C33.2426 49.1739 33.74 48.9024 34.3305 48.9024C34.4296 48.9024 34.5307 48.9202 34.6337 48.9559V50.0498L34.4138 50.0439C33.8351 50.0439 33.3873 50.2182 33.0702 50.567C32.7571 50.9118 32.6005 51.4053 32.6005 52.0473V55.4539H32.0655H31.5304ZM37.8619 55.6263C37.0098 55.6263 36.3321 55.3092 35.8287 54.6751C35.3254 54.037 35.0737 53.1769 35.0737 52.0949C35.0737 51.1397 35.3174 50.3689 35.8049 49.7823C36.2924 49.1957 36.9285 48.9024 37.7133 48.9024C38.4941 48.9024 39.1124 49.2333 39.5681 49.8952L39.6514 50.0141V46.7146H40.1864H40.7215V55.4539H40.228H39.7287V54.5859L39.5919 54.7821C39.152 55.3449 38.5753 55.6263 37.8619 55.6263ZM37.9214 49.8655C37.3229 49.8655 36.8849 50.0577 36.6075 50.4422C36.3301 50.8227 36.1914 51.4291 36.1914 52.2614C36.1914 53.0461 36.34 53.6505 36.6372 54.0746C36.9384 54.4987 37.3665 54.7107 37.9214 54.7107C38.4406 54.7107 38.8587 54.5165 39.1758 54.1281C39.4928 53.7357 39.6514 53.2185 39.6514 52.5765C39.6514 51.7085 39.5008 51.0406 39.1995 50.573C38.9023 50.1013 38.4762 49.8655 37.9214 49.8655ZM47.2313 53.165C47.1203 53.9656 46.837 54.576 46.3812 54.9961C45.9254 55.4162 45.319 55.6263 44.562 55.6263C43.7178 55.6263 43.044 55.3231 42.5407 54.7167C42.0373 54.1103 41.7856 53.2938 41.7856 52.2673C41.7856 51.2408 42.0452 50.4243 42.5644 49.8179C43.0876 49.2076 43.7891 48.9024 44.669 48.9024C45.4339 48.9024 46.0443 49.1125 46.5001 49.5326C46.9559 49.9487 47.1996 50.5234 47.2313 51.2566H46.2028C46.1592 50.8009 46.0007 50.4481 45.7272 50.1984C45.4537 49.9487 45.0891 49.8239 44.6333 49.8239C44.0943 49.8239 43.6702 50.0419 43.3611 50.4778C43.0559 50.9099 42.9033 51.5063 42.9033 52.2673C42.9033 53.0758 43.046 53.6842 43.3314 54.0924C43.6167 54.5007 44.0408 54.7048 44.6036 54.7048C45.0198 54.7048 45.3665 54.572 45.644 54.3065C45.9254 54.037 46.1117 53.6565 46.2028 53.165H47.2313ZM49.9779 55.6263C49.3557 55.6263 48.8622 55.4598 48.4976 55.1269C48.133 54.794 47.9507 54.3441 47.9507 53.7774C47.9507 53.2066 48.1211 52.7528 48.4619 52.4159C48.8068 52.079 49.3081 51.869 49.966 51.7858L51.4226 51.6015C51.5415 51.5896 51.6544 51.5698 51.7614 51.542C51.9002 51.5063 52.0072 51.435 52.0825 51.328C52.1578 51.221 52.1954 51.0862 52.1954 50.9237V50.8702C52.1954 50.5294 52.0666 50.2638 51.809 50.0736C51.5514 49.8794 51.1927 49.7823 50.733 49.7823C50.293 49.7823 49.9482 49.8853 49.6985 50.0914C49.4528 50.2936 49.3042 50.5967 49.2526 51.001H48.2658C48.3173 50.3035 48.563 49.7803 49.0029 49.4315C49.4429 49.0788 50.0731 48.9024 50.8935 48.9024C51.6663 48.9024 52.2549 49.0709 52.6592 49.4077C53.0634 49.7407 53.2655 50.2282 53.2655 50.8702V54.3659C53.2655 54.4729 53.2973 54.5601 53.3607 54.6275C53.428 54.6909 53.5172 54.7226 53.6282 54.7226C53.6599 54.7226 53.7055 54.7187 53.7649 54.7107C53.8283 54.7028 53.8957 54.6909 53.9671 54.6751V55.4479C53.864 55.4875 53.755 55.5193 53.6401 55.543C53.5251 55.5668 53.428 55.5787 53.3488 55.5787C52.9445 55.5787 52.6512 55.4677 52.4689 55.2458C52.35 55.0991 52.2648 54.8911 52.2133 54.6215C52.134 54.7206 52.0428 54.8158 51.9398 54.9069C51.4047 55.3865 50.7508 55.6263 49.9779 55.6263ZM52.1954 52.9332V52.2435C51.9973 52.3386 51.7773 52.404 51.5355 52.4397L50.5546 52.5824C50.0394 52.6537 49.6628 52.7746 49.425 52.945C49.1872 53.1115 49.0683 53.3394 49.0683 53.6287C49.0683 53.9854 49.1654 54.2609 49.3596 54.4551C49.5539 54.6453 49.8293 54.7405 50.186 54.7405C50.7488 54.7405 51.2244 54.5879 51.6128 54.2827C51.8784 54.0687 52.0547 53.8269 52.1419 53.5574C52.1578 53.5059 52.1697 53.4246 52.1776 53.3136C52.1895 53.1987 52.1954 53.0719 52.1954 52.9332ZM55.1026 55.4539V46.7146H55.6376H56.1727V55.4539H55.6376H55.1026ZM57.8135 55.4539V46.7146H58.3486H58.8836V55.4539H58.3486H57.8135ZM60.5363 55.4539V49.0926H61.0714H61.6065V55.4539H61.0714H60.5363ZM60.5245 46.7146H61.6183V47.9274H60.5245V46.7146ZM63.2116 55.4539V49.0926H63.717H64.2282V50.032L64.466 49.7169C64.9297 49.1739 65.5104 48.9024 66.2079 48.9024C66.9094 48.9024 67.4504 49.0926 67.8309 49.4731C68.2114 49.8536 68.4017 50.3946 68.4017 51.0961V55.4539H67.8666H67.3315V51.4588C67.3315 50.8999 67.2226 50.4977 67.0046 50.2519C66.7905 50.0022 66.4418 49.8774 65.9582 49.8774C65.443 49.8774 65.0348 50.0736 64.7336 50.466C64.4323 50.8544 64.2817 51.3815 64.2817 52.0473V55.4539H63.7467H63.2116ZM72.3194 57.2552C72.9338 57.2552 73.4014 57.061 73.7225 56.6726C74.0435 56.2881 74.204 55.7253 74.204 54.9842V54.7761L74.1981 54.7821C73.7581 55.3449 73.1835 55.6263 72.474 55.6263C71.6219 55.6263 70.9442 55.3092 70.4408 54.6751C69.9375 54.037 69.6858 53.1769 69.6858 52.0949C69.6858 51.1397 69.9335 50.3689 70.4289 49.7823C70.9243 49.1957 71.5723 48.9024 72.3729 48.9024C73.1379 48.9024 73.7443 49.2333 74.1921 49.8952L74.2694 50.0082V49.0926H75.2741V54.9842C75.2702 56.0583 75.0284 56.8529 74.5488 57.3682C74.0693 57.8834 73.3321 58.141 72.3373 58.141C71.6159 58.141 71.0432 57.9746 70.6192 57.6416C70.1951 57.3087 69.9394 56.8252 69.8522 56.191H70.9461C71.0095 56.5319 71.1602 56.7935 71.398 56.9758C71.6397 57.1621 71.9469 57.2552 72.3194 57.2552ZM72.5275 49.8774C71.929 49.8774 71.4911 50.0676 71.2137 50.4481C70.9402 50.8286 70.8035 51.433 70.8035 52.2614C70.8035 53.0421 70.9521 53.6446 71.2493 54.0687C71.5505 54.4888 71.9766 54.6988 72.5275 54.6988C73.0467 54.6988 73.4649 54.5046 73.7819 54.1162C74.099 53.7278 74.2575 53.2146 74.2575 52.5765C74.2575 51.6768 74.1129 51.003 73.8235 50.5551C73.5382 50.1033 73.1062 49.8774 72.5275 49.8774Z" fill="#002A46"/>
</svg>
