<svg width="133" height="47" viewBox="0 0 133 47" fill="none" xmlns="http://www.w3.org/2000/svg">
<rect width="133" height="46.7692" rx="4.38462" fill="#569700"/>
<path d="M66.3864 24.3472C64.6179 24.3472 63.1764 25.6924 63.1764 27.5452C63.1764 29.3867 64.6179 30.7431 66.3864 30.7431C68.1557 30.7431 69.5971 29.3867 69.5971 27.5452C69.5964 25.6924 68.1549 24.3472 66.3864 24.3472ZM66.3864 29.4844C65.4172 29.4844 64.5818 28.6851 64.5818 27.5459C64.5818 26.3947 65.4179 25.6075 66.3864 25.6075C67.3556 25.6075 68.191 26.3947 68.191 27.5459C68.191 28.6844 67.3556 29.4844 66.3864 29.4844ZM59.3829 24.3472C57.6144 24.3472 56.173 25.6924 56.173 27.5452C56.173 29.3867 57.6144 30.7431 59.3829 30.7431C61.1522 30.7431 62.5937 29.3867 62.5937 27.5452C62.5937 25.6924 61.1522 24.3472 59.3829 24.3472ZM59.3829 29.4844C58.4137 29.4844 57.5783 28.6851 57.5783 27.5459C57.5783 26.3947 58.4145 25.6075 59.3829 25.6075C60.3522 25.6075 61.1876 26.3947 61.1876 27.5459C61.1883 28.6844 60.3522 29.4844 59.3829 29.4844ZM51.0531 25.3293V26.6857H54.2999C54.2029 27.4489 53.9488 28.0061 53.5608 28.3934C53.0886 28.8656 52.3494 29.3867 51.0531 29.3867C49.0545 29.3867 47.492 27.7753 47.492 25.7767C47.492 23.778 49.0545 22.1667 51.0531 22.1667C52.1314 22.1667 52.9186 22.5907 53.4999 23.1359L54.4571 22.1787C53.645 21.4035 52.5675 20.8102 51.0531 20.8102C48.3153 20.8102 46.0137 23.0389 46.0137 25.7767C46.0137 28.5144 48.3153 30.7431 51.0531 30.7431C52.5306 30.7431 53.6457 30.2581 54.5172 29.3498C55.4135 28.4535 55.6925 27.1933 55.6925 26.1759C55.6925 25.8616 55.6684 25.5706 55.6195 25.3285H51.0531V25.3293ZM85.1214 26.3827C84.8552 25.6684 84.0431 24.3472 82.3836 24.3472C80.7362 24.3472 79.3669 25.6436 79.3669 27.5452C79.3669 29.3378 80.7241 30.7431 82.5408 30.7431C84.0063 30.7431 84.8545 29.8468 85.2064 29.3258L84.1161 28.5986C83.7529 29.1318 83.2559 29.4829 82.5408 29.4829C81.8265 29.4829 81.3174 29.1558 80.9903 28.5137L85.2665 26.7451L85.1214 26.3827ZM80.7602 27.4489C80.7241 26.2128 81.7174 25.5834 82.4325 25.5834C82.9897 25.5834 83.4619 25.8624 83.6198 26.2617L80.7602 27.4489ZM77.2841 30.5499H78.6887V21.1501H77.2841V30.5499ZM74.9817 25.0623H74.9335C74.6185 24.6864 74.0124 24.3472 73.25 24.3472C71.6506 24.3472 70.1851 25.7526 70.1851 27.558C70.1851 29.3506 71.6506 30.7439 73.25 30.7439C74.0132 30.7439 74.6185 30.4048 74.9335 30.0175H74.9817V30.4777C74.9817 31.7011 74.3275 32.3553 73.274 32.3553C72.4138 32.3553 71.8807 31.7379 71.6627 31.2169L70.4393 31.7259C70.7904 32.5733 71.7228 33.6155 73.274 33.6155C74.9215 33.6155 76.3148 32.6463 76.3148 30.2837V24.542H74.9824V25.0623H74.9817ZM73.371 29.4844C72.4018 29.4844 71.5905 28.6723 71.5905 27.558C71.5905 26.4308 72.4018 25.6075 73.371 25.6075C74.3275 25.6075 75.0787 26.4308 75.0787 27.558C75.0787 28.6723 74.3275 29.4844 73.371 29.4844ZM91.7038 21.1501H88.3419V30.5499H89.7442V26.9888H91.703C93.258 26.9888 94.7874 25.8631 94.7874 24.0698C94.7874 22.2764 93.2588 21.1501 91.7038 21.1501ZM91.7399 25.6804H89.7442V22.4584H91.7399C92.7888 22.4584 93.3843 23.3269 93.3843 24.0698C93.3843 24.7977 92.7888 25.6804 91.7399 25.6804ZM100.411 24.3307C99.3952 24.3307 98.3433 24.7781 97.9079 25.7699L99.1531 26.2895C99.4193 25.7699 99.9156 25.6 100.435 25.6C101.161 25.6 101.898 26.0353 101.91 26.8091V26.9061C101.656 26.7609 101.112 26.5436 100.447 26.5436C99.105 26.5436 97.738 27.2813 97.738 28.6595C97.738 29.9175 98.8388 30.7273 100.072 30.7273C101.015 30.7273 101.535 30.304 101.862 29.8077H101.91V30.5334H103.265V26.9294C103.265 25.2616 102.019 24.3307 100.411 24.3307ZM100.241 29.4822C99.7825 29.4822 99.1411 29.2521 99.1411 28.6836C99.1411 27.958 99.9396 27.6798 100.629 27.6798C101.245 27.6798 101.536 27.8129 101.91 27.9941C101.801 28.8656 101.052 29.4822 100.241 29.4822ZM108.199 24.536L106.59 28.6114H106.542L104.873 24.536H103.362L105.865 30.2318L104.438 33.4004H105.901L109.759 24.536H108.199ZM95.5619 30.5499H96.9643V21.1501H95.5619V30.5499Z" fill="white"/>
<path d="M50.8092 15.6937C50.8092 16.3238 50.6228 16.8253 50.2491 17.1998C49.825 17.6449 49.2715 17.8675 48.5918 17.8675C47.9406 17.8675 47.3865 17.6419 46.9315 17.1907C46.4759 16.7388 46.248 16.1794 46.248 15.5117C46.248 14.8432 46.4759 14.2838 46.9315 13.8326C47.3865 13.3807 47.9406 13.1552 48.5918 13.1552C48.9151 13.1552 49.2242 13.2183 49.5174 13.3439C49.8114 13.4702 50.0468 13.6379 50.2227 13.8477L49.8265 14.2447C49.528 13.8875 49.1166 13.7093 48.591 13.7093C48.1158 13.7093 47.7053 13.8763 47.3586 14.2101C47.012 14.544 46.8391 14.9778 46.8391 15.5109C46.8391 16.0441 47.012 16.4779 47.3586 16.8118C47.7053 17.1456 48.1158 17.3126 48.591 17.3126C49.0948 17.3126 49.5152 17.1449 49.8513 16.8088C50.0693 16.59 50.1957 16.2854 50.2295 15.8952H48.591V15.353H50.7769C50.7995 15.4711 50.8092 15.5846 50.8092 15.6937Z" fill="white"/>
<path d="M54.2757 13.8094H52.2214V15.2395H54.0742V15.7817H52.2214V17.2118H54.2757V17.7668H51.6417V13.2552H54.2757V13.8094Z" fill="white"/>
<path d="M56.7201 17.7668H56.1404V13.8094H54.8802V13.2552H57.9804V13.8094H56.7201V17.7668Z" fill="white"/>
<path d="M60.2233 17.7668V13.2552H60.8031V17.7668H60.2233Z" fill="white"/>
<path d="M63.374 17.7668H62.7943V13.8094H61.534V13.2552H64.6342V13.8094H63.374V17.7668Z" fill="white"/>
<path d="M70.5029 17.184C70.0592 17.6397 69.5081 17.8675 68.8486 17.8675C68.1892 17.8675 67.638 17.6397 67.1951 17.184C66.7515 16.7283 66.5304 16.1704 66.5304 15.511C66.5304 14.8515 66.7515 14.2936 67.1951 13.8379C67.638 13.3823 68.1892 13.1537 68.8486 13.1537C69.5043 13.1537 70.0547 13.383 70.4999 13.8409C70.945 14.2989 71.1676 14.8553 71.1676 15.511C71.1676 16.1704 70.9458 16.7283 70.5029 17.184ZM67.623 16.8058C67.9568 17.1442 68.3651 17.3126 68.8486 17.3126C69.3321 17.3126 69.7412 17.1434 70.0743 16.8058C70.4081 16.4674 70.5758 16.0358 70.5758 15.511C70.5758 14.9861 70.4081 14.5545 70.0743 14.2162C69.7412 13.8778 69.3321 13.7094 68.8486 13.7094C68.3651 13.7094 67.9568 13.8785 67.623 14.2162C67.2899 14.5545 67.1222 14.9861 67.1222 15.511C67.1222 16.0358 67.2899 16.4674 67.623 16.8058Z" fill="white"/>
<path d="M71.9812 17.7668V13.2552H72.6865L74.8791 16.7644H74.9039L74.8791 15.8952V13.2552H75.4588V17.7668H74.8535L72.5594 14.0868H72.5346L72.5594 14.9561V17.7668H71.9812Z" fill="white"/>
<path fill-rule="evenodd" clip-rule="evenodd" d="M22.7949 13.9716C22.7031 14.1746 22.6523 14.4246 22.6523 14.7162V31.3458C22.6523 31.638 22.7031 31.888 22.7949 32.0909L31.8539 23.0306L22.7949 13.9716ZM23.3024 32.6169C23.6391 32.7659 24.0809 32.7223 24.563 32.4489L35.2177 26.3944L32.3706 23.5474L23.3024 32.6169ZM35.8772 26.0204L39.2263 24.1176C40.2768 23.5198 40.2768 22.543 39.2263 21.946L35.8755 20.042L32.8873 23.0306L35.8772 26.0204ZM35.2165 19.6675L24.563 13.6139C24.0809 13.34 23.6393 13.2966 23.3025 13.4458L32.3706 22.5139L35.2165 19.6675Z" fill="white"/>
</svg>
