<svg width="48" height="48" viewBox="0 0 48 48" fill="none" xmlns="http://www.w3.org/2000/svg">
<circle cx="24" cy="24" r="24" fill="#E7F7E1"/>
<path d="M29.1906 33.5503C27.7384 33.5425 26.356 33.185 25.0178 32.6506C22.7738 31.7552 20.7957 30.4567 19.2191 28.6107C17.3015 26.3633 16.1039 23.7713 15.6714 20.8418C15.5773 20.2054 15.5652 19.5613 15.699 18.9233C15.7819 18.5261 15.9528 18.1859 16.2499 17.8975C16.9035 17.2629 17.545 16.6154 18.1839 15.9661C18.5552 15.5897 18.9808 15.5128 19.4635 15.695C19.9547 15.8806 20.3631 16.1966 20.7413 16.5489C21.9337 17.6592 22.918 18.9354 23.7278 20.347C23.8012 20.4748 23.8634 20.6112 23.9117 20.7502C24.0499 21.1509 23.9938 21.4997 23.6708 21.8114C23.0052 22.4546 22.3593 23.1168 21.704 23.7696C21.6263 23.8473 21.5659 23.9077 21.6202 24.0398C22.3265 25.7399 23.4947 26.9538 25.2673 27.5453C25.4037 27.591 25.4831 27.5651 25.5798 27.4667C26.1851 26.8528 26.7998 26.2493 27.4042 25.6345C27.677 25.3574 28 25.2486 28.3462 25.4109C28.8867 25.6639 29.428 25.9298 29.928 26.2527C30.9632 26.921 31.9155 27.6989 32.7392 28.6202C32.9818 28.8913 33.2055 29.1909 33.3799 29.5095C33.6915 30.0794 33.5983 30.5508 33.1433 31.0067C32.5389 31.611 31.9172 32.199 31.3362 32.825C30.8958 33.299 30.3571 33.4967 29.7406 33.5468C29.5584 33.5632 29.3745 33.5503 29.1906 33.5503ZM32.1158 30.05C32.0191 29.9196 31.938 29.7867 31.8335 29.6744C30.8095 28.577 29.6258 27.6808 28.3436 26.9072C28.2314 26.8399 28.1614 26.8588 28.0716 26.9495C27.5061 27.5228 26.9276 28.0832 26.3681 28.6616C26.0202 29.0208 25.6852 29.1538 25.1507 28.9906C22.6771 28.2386 21.0746 26.6162 20.1939 24.2237C20.0212 23.754 20.1188 23.3595 20.4762 23.0098C21.1117 22.3864 21.7342 21.7509 22.368 21.1258C22.4629 21.0317 22.4828 20.9609 22.4206 20.8383C21.6548 19.3437 20.541 18.1514 19.2277 17.1282C19.1103 17.0367 19.0482 17.0842 18.9644 17.1688C18.4023 17.7352 17.842 18.3042 17.2695 18.8602C17.0986 19.026 17.0062 19.2142 17.0148 19.4405C17.0356 19.968 17.0183 20.5059 17.1159 21.0205C17.842 24.8583 19.7501 27.9355 23.0561 30.0802C24.7216 31.1612 26.5287 31.8899 28.5146 32.1334C29.0645 32.2007 29.5912 32.1835 30.0816 31.8597C30.8449 31.3572 31.4899 30.7321 32.1158 30.05Z" fill="#3EBF0F"/>
</svg>
