<svg width="25" height="24" viewBox="0 0 25 24" fill="none" xmlns="http://www.w3.org/2000/svg">
<path d="M23.77 9.5405L16.27 16.7905M23.77 9.5405L15 5.5205C10.59 5.7705 4 8.2305 4 16.2505C4.00081 16.4085 4.05153 16.5623 4.14492 16.6898C4.2383 16.8173 4.36957 16.912 4.52 16.9605C4.67081 17.007 4.83226 17.006 4.98251 16.9577C5.13275 16.9095 5.26453 16.8162 5.36 16.6905C5.4794 16.5313 8.27193 12.8178 14.9 12.5148V12.6149M23.77 9.5405C23.8425 9.47047 23.9001 9.38656 23.9394 9.29379C23.9788 9.20102 23.9991 9.10128 23.9991 9.0005C23.9991 8.89973 23.9788 8.79998 23.9394 8.70721C23.9001 8.61444 23.8425 8.53054 23.77 8.4605V9.5405ZM16.27 16.7905C16.2014 16.8581 16.1202 16.9114 16.031 16.9474C15.9417 16.9835 15.8462 17.0015 15.75 17.0005C15.5511 17.0005 15.3603 16.9215 15.2197 16.7808C15.079 16.6402 15 16.4494 15 16.2505V12.6106C14.9666 12.6119 14.9332 12.6134 14.9 12.6149M16.27 16.7905L16.3402 16.8617M16.27 16.7905L16.3402 16.8617M14.9 12.6149C8.31609 12.9176 5.54937 16.6047 5.44 16.7505L5.43963 16.751C5.33176 16.893 5.18287 16.9984 5.01311 17.053C4.84335 17.1075 4.66093 17.1086 4.49054 17.0561L4.48933 17.0557C4.31885 17.0008 4.17007 16.8934 4.06424 16.7489C3.95841 16.6044 3.90092 16.4301 3.9 16.251L3.9 16.2505C3.9 12.2085 5.56271 9.55909 7.78626 7.89175C9.97396 6.25128 12.6981 5.56585 14.9 5.42633M14.9 12.6149V16.2505C14.9 16.4759 14.9896 16.6921 15.149 16.8515C15.3082 17.0108 15.5242 17.1004 15.7495 17.1005C15.8587 17.1016 15.9671 17.0811 16.0684 17.0402C16.1697 16.9992 16.262 16.9387 16.3399 16.862L14.9 5.42633M14.9 5.42633V1.7505V1.75028C14.9004 1.58311 14.95 1.41976 15.0428 1.28067C15.1354 1.14172 15.2669 1.03313 15.4209 0.968473C15.5736 0.902704 15.7425 0.883759 15.906 0.914044C16.0697 0.94435 16.2206 1.02259 16.3397 1.13883C16.3398 1.13887 16.3398 1.13891 16.3399 1.13895L23.8395 8.3886C23.9216 8.46796 23.9869 8.56303 24.0315 8.66816C24.0761 8.77328 24.0991 8.88631 24.0991 9.0005C24.0991 9.11469 24.0761 9.22772 24.0315 9.33285C23.9869 9.43797 23.9216 9.53304 23.8395 9.61241L16.3402 16.8617M14.9 5.42633L16.3402 16.8617M20.723 17.2235L20.6524 17.1527C20.4938 17.311 20.4032 17.525 20.4 17.7491V17.7505V18.2502C20.3974 19.0849 20.0647 19.8847 19.4745 20.475C18.8842 21.0652 18.0844 21.3979 17.2497 21.4005H5.75031C4.91558 21.3979 4.11577 21.0652 3.52553 20.475C2.93532 19.8848 2.6026 19.085 2.6 18.2503V6.75065C2.6026 5.91598 2.93532 5.11624 3.52553 4.52603C4.11573 3.93582 4.91548 3.6031 5.75015 3.6005H10.25C10.4754 3.6005 10.6916 3.51095 10.851 3.35154C11.0104 3.19214 11.1 2.97594 11.1 2.7505C11.1 2.52507 11.0104 2.30887 10.851 2.14946C10.6916 1.99006 10.4754 1.9005 10.25 1.9005H5.75C4.4637 1.9005 3.23008 2.41148 2.32053 3.32103C1.41098 4.23059 0.9 5.4642 0.9 6.7505V18.2505C0.9 19.5368 1.41098 20.7704 2.32053 21.68C3.23008 22.5895 4.4637 23.1005 5.75 23.1005H17.25C18.5363 23.1005 19.7699 22.5895 20.6795 21.68C21.589 20.7704 22.1 19.5368 22.1 18.2505L22.1 17.7505L22.1 17.7492C22.0971 17.525 22.0067 17.3109 21.8482 17.1523C21.6896 16.9938 21.4755 16.9034 21.2513 16.9005L21.2486 16.9005C21.0245 16.9037 20.8105 16.9943 20.6522 17.1529L20.723 17.2235ZM20.723 17.2235C20.5828 17.3634 20.5028 17.5525 20.5 17.7505L21.25 17.0005C21.052 17.0033 20.8629 17.0833 20.723 17.2235ZM16.6 11.7505L16.6 11.7492C16.5971 11.525 16.5067 11.3109 16.3482 11.1523C16.1899 10.994 15.9761 10.9037 15.7523 10.9005C12.1733 10.7821 8.66429 11.8923 5.80693 14.0421C6.48221 10.7224 8.67507 8.99084 10.8448 8.08529C13.0731 7.15526 15.2702 7.1005 15.75 7.10051L15.7513 7.10049C15.9755 7.09756 16.1896 7.00721 16.3482 6.84868C16.5067 6.69015 16.5971 6.47598 16.6 6.25181H16.6V6.2505V3.75622L22.026 9.00037L16.6 14.2254L16.6 11.7505Z" fill="#929292" stroke="#929292" stroke-width="0.2"/>
</svg>
