<svg width="27" height="27" viewBox="0 0 27 27" fill="none" xmlns="http://www.w3.org/2000/svg">
<path d="M14.3929 18.8576H16.1786M22.4286 15.2862V13.5005C22.4286 13.0269 22.2404 12.5727 21.9055 12.2378C21.5707 11.9029 21.1165 11.7148 20.6429 11.7148H2.78571C2.31211 11.7148 1.85791 11.9029 1.52302 12.2378C1.18814 12.5727 1 13.0269 1 13.5005V24.2148C1 24.6884 1.18814 25.1426 1.52302 25.4775C1.85791 25.8124 2.31211 26.0005 2.78571 26.0005H20.6429C21.1165 26.0005 21.5707 25.8124 21.9055 25.4775C22.2404 25.1426 22.4286 24.6884 22.4286 24.2148V22.4291V15.2862ZM22.4286 15.2862H15.2857C14.3385 15.2862 13.4301 15.6625 12.7603 16.3323C12.0906 17.002 11.7143 17.9104 11.7143 18.8576C11.7143 19.8048 12.0906 20.7132 12.7603 21.383C13.4301 22.0528 14.3385 22.4291 15.2857 22.4291H22.4286V15.2862ZM22.4286 15.2862C23.3758 15.2862 24.2842 15.6625 24.954 16.3323C25.6237 17.002 26 17.9104 26 18.8576C26 19.8048 25.6237 20.7132 24.954 21.383C24.2842 22.0528 23.3758 22.4291 22.4286 22.4291V15.2862ZM6.35714 11.7148V6.35763C6.35714 4.93683 6.92155 3.57422 7.92621 2.56956C8.93087 1.5649 10.2935 1.00049 11.7143 1.00049C13.1351 1.00049 14.4977 1.5649 15.5024 2.56956C16.507 3.57422 17.0714 4.93683 17.0714 6.35763V11.7148H6.35714ZM21.5357 18.8576H23.3214H21.5357ZM17.9643 18.8576H19.75H17.9643Z" stroke="#929292" stroke-width="2"/>
</svg>
