<svg width="25" height="25" viewBox="0 0 25 25" fill="none" xmlns="http://www.w3.org/2000/svg">
<path fill-rule="evenodd" clip-rule="evenodd" d="M17.044 9.09135C17.044 10.2969 16.5651 11.453 15.7127 12.3055C14.8603 13.1579 13.7041 13.6368 12.4986 13.6368C11.2931 13.6368 10.1369 13.1579 9.28446 12.3055C8.43202 11.453 7.95313 10.2969 7.95312 9.09135C7.95313 7.88582 8.43202 6.72967 9.28446 5.87723C10.1369 5.02479 11.2931 4.5459 12.4986 4.5459C13.7041 4.5459 14.8603 5.02479 15.7127 5.87723C16.5651 6.72967 17.044 7.88582 17.044 9.09135ZM14.7713 9.09135C14.7713 9.69412 14.5319 10.2722 14.1056 10.6984C13.6794 11.1246 13.1013 11.3641 12.4986 11.3641C11.8958 11.3641 11.3177 11.1246 10.8915 10.6984C10.4653 10.2722 10.2259 9.69412 10.2259 9.09135C10.2259 8.48859 10.4653 7.91051 10.8915 7.48429C11.3177 7.05807 11.8958 6.81863 12.4986 6.81863C13.1013 6.81863 13.6794 7.05807 14.1056 7.48429C14.5319 7.91051 14.7713 8.48859 14.7713 9.09135Z" fill="#929292"/>
<path fill-rule="evenodd" clip-rule="evenodd" d="M12.5 0.000488281C5.59659 0.000488281 0 5.59708 0 12.5005C0 19.4039 5.59659 25.0005 12.5 25.0005C19.4034 25.0005 25 19.4039 25 12.5005C25 5.59708 19.4034 0.000488281 12.5 0.000488281ZM2.27273 12.5005C2.27273 14.8755 3.08295 17.0619 4.44091 18.7982C5.39458 17.5458 6.62489 16.5309 8.03572 15.8327C9.44655 15.1344 10.9997 14.7718 12.5739 14.7732C14.1276 14.7717 15.6613 15.1249 17.0579 15.8059C18.4545 16.4869 19.6772 17.4777 20.633 18.7028C21.6176 17.4114 22.2805 15.9041 22.5669 14.3057C22.8534 12.7073 22.755 11.0636 22.2801 9.5107C21.8052 7.9578 20.9673 6.54032 19.8358 5.37553C18.7043 4.21075 17.3116 3.33215 15.7732 2.81243C14.2347 2.29271 12.5945 2.14682 10.9885 2.38682C9.38241 2.62682 7.85658 3.24582 6.53724 4.19259C5.21789 5.13937 4.14297 6.3867 3.4014 7.83139C2.65983 9.27608 2.27293 10.8766 2.27273 12.5005ZM12.5 22.7278C10.1522 22.7313 7.8753 21.9236 6.05455 20.4414C6.78742 19.3922 7.76288 18.5356 8.89795 17.9444C10.033 17.3533 11.2941 17.045 12.5739 17.0459C13.8377 17.0449 15.0835 17.3455 16.2079 17.9226C17.3322 18.4997 18.3027 19.3367 19.0386 20.3641C17.2037 21.8945 14.8893 22.7311 12.5 22.7278Z" fill="#929292"/>
</svg>
