<svg width="130" height="129" viewBox="0 0 130 129" fill="none" xmlns="http://www.w3.org/2000/svg">
<path opacity="0.2" d="M96.8652 96.75C114.676 78.9388 114.676 50.0612 96.8652 32.25C79.054 14.4388 50.1764 14.4388 32.3652 32.25C14.5541 50.0612 14.5541 78.9388 32.3652 96.75C50.1764 114.561 79.0541 114.561 96.8652 96.75Z" fill="#9FDF87"/>
<path d="M82.9344 81.5452C74.5681 78.9229 69.4484 76.1445 69.4484 76.1445L63.7356 76.6752L58.0228 76.1445C58.0228 76.1445 52.9031 78.9229 44.5368 81.5452C36.1705 84.1674 32.8927 94.5004 34.0165 104.365C34.0165 104.365 41.977 111.639 62.7991 112.076V112.107C63.1113 112.107 63.4235 112.107 63.7356 112.107C64.0478 112.107 64.36 112.107 64.6722 112.107V112.076C85.4942 111.67 93.4547 104.365 93.4547 104.365C94.5786 94.5004 91.3007 84.1674 82.9344 81.5452Z" fill="black"/>
<path d="M77.2532 54.8228L76.2542 54.5106C76.2854 54.417 79.3448 44.7707 75.068 38.9018C72.8515 35.8425 69.0117 34.3129 63.6735 34.3129C58.3353 34.3129 54.4956 35.8737 52.2479 38.9331C47.9711 44.8332 51.0304 54.4482 51.0617 54.5418L50.0627 54.854C49.9378 54.4482 46.8161 44.6146 51.4051 38.3087C53.84 34.9684 57.9607 33.2515 63.6735 33.2515C69.3864 33.2515 73.5071 34.9372 75.942 38.3087C80.531 44.5834 77.3781 54.3857 77.2532 54.8228Z" fill="#01063D"/>
<path d="M71.0725 66.7476L64.0173 66.0295L56.9621 66.7476C56.9621 66.7476 58.1484 73.4281 56.2441 78.6102C56.2441 78.6102 58.5855 81.5447 63.9861 81.5447C69.3867 81.5447 71.728 78.6102 71.728 78.6102C69.8862 73.4281 71.0725 66.7476 71.0725 66.7476Z" fill="#FDB2B6"/>
<path d="M71.0732 66.7476L64.0181 66.0295L56.9629 66.7476C56.9629 66.7476 57.3375 68.8391 57.3375 71.5863C58.1492 72.8038 59.0857 73.8651 60.1159 74.708C61.5519 75.8943 64.2678 76.144 64.9546 76.144C65.6726 76.144 68.3573 75.8631 69.7933 74.708C70.1367 74.4271 70.4489 74.1149 70.761 73.8027C70.4801 70.0566 71.0732 66.7476 71.0732 66.7476Z" fill="#FDB2B6"/>
<path d="M63.6733 40.9619C56.5245 40.9619 51.873 46.7372 51.873 53.886C51.873 59.2242 54.4953 66.9349 58.8346 70.4625C60.2706 71.6488 62.9865 71.8985 63.6733 71.8985C64.3913 71.8985 67.076 71.6175 68.512 70.4625C72.82 66.9349 75.4735 59.2242 75.4735 53.886C75.4735 46.7684 70.7909 40.9619 63.6733 40.9619Z" fill="#FDB2B6"/>
<path d="M71.9457 44.3336C71.9457 42.0547 68.2308 40.1816 63.673 40.1816C59.1153 40.1816 55.4004 42.0235 55.4004 44.3336C55.4004 46.6125 59.1153 48.4855 63.673 48.4855C68.2308 48.4855 71.9457 46.6437 71.9457 44.3336Z" fill="black"/>
<path d="M58.0227 45.676C58.0227 45.676 52.1226 48.2671 52.3723 58.4752C52.3723 58.4752 51.0612 55.1037 51.3109 50.265C51.5607 45.4263 56.6491 42.1484 56.6491 42.1484L58.0227 45.676Z" fill="black"/>
<path d="M69.291 45.676C69.291 45.676 75.1911 48.2671 74.9414 58.4752C74.9414 58.4752 76.2525 55.1037 76.0028 50.265C75.753 45.4263 70.6646 42.1484 70.6646 42.1484L69.291 45.676Z" fill="black"/>
<path d="M54.1509 43.5532C54.1509 43.5532 53.6515 40.5875 57.897 38.5272C64.203 35.4366 73.9741 39.1515 75.5037 49.2036C75.5037 49.2036 65.0459 41.7114 54.1509 43.5532Z" fill="black"/>
<path d="M56.1812 42.1486C56.1812 42.1486 54.7452 40.9935 52.3103 43.5534C49.8753 46.1444 51.3425 53.0747 51.3425 53.0747C51.3425 53.0747 54.4018 43.7095 58.0231 43.2724C61.6443 42.8354 55.6818 42.1174 55.6818 42.1174" fill="black"/>
<path d="M71.0089 42.1486C71.0089 42.1486 72.4449 40.9935 74.8798 43.5534C77.3148 46.1444 75.8476 53.0747 75.8476 53.0747C75.8476 53.0747 72.7882 43.7095 69.167 43.2724C65.5458 42.8354 71.5083 42.1174 71.5083 42.1174" fill="black"/>
<path d="M47.5963 59.193C47.971 62.4708 51.0303 64.8434 52.6848 64.6561C54.3393 64.4687 53.9023 61.8153 53.5589 58.5374C53.1843 55.2596 53.0282 52.5749 51.3737 52.7622C49.7191 52.9495 47.2217 55.9151 47.5963 59.193Z" fill="#3EBF0F"/>
<path d="M53.5576 58.5374C53.183 55.2596 53.0269 52.5749 51.3724 52.7622C51.1851 52.7934 50.9666 52.8558 50.748 52.9495C51.6846 53.605 51.8407 55.8839 52.1528 58.5374C52.465 61.5031 52.8396 63.9381 51.7158 64.5312C52.0592 64.6561 52.4026 64.6873 52.6835 64.6561C54.3381 64.5 53.901 61.8465 53.5576 58.5374Z" fill="white"/>
<path d="M53.0908 38.7456C52.6538 38.7456 52.248 38.5895 51.9358 38.2461C51.3426 37.6218 51.3739 36.5916 51.9982 35.9984C54.6829 33.4698 58.6163 32.1587 63.6736 32.1587C68.6059 32.1587 72.4769 33.4074 75.1928 35.8424C75.8484 36.4355 75.8796 37.4345 75.2865 38.09C74.6934 38.7456 73.6944 38.7768 73.0388 38.2149C70.9473 36.3106 67.7943 35.3741 63.6736 35.3741C59.4592 35.3741 56.275 36.3731 54.1834 38.3398C53.8713 38.5895 53.4654 38.7456 53.0908 38.7456Z" fill="#3EBF0F"/>
<path d="M64.9531 69.9007V69.2139C69.9479 69.2139 73.6316 67.934 75.6295 65.5302C77.128 63.7508 77.1592 61.9402 77.1592 61.9402H77.8772C77.8772 62.0338 77.8147 64.0005 76.1914 65.9672C74.693 67.7779 71.5088 69.9007 64.9531 69.9007Z" fill="#01063D"/>
<path d="M66.7023 69.4326C66.7023 70.2131 65.6721 70.8374 64.4234 70.8374C63.1435 70.8374 62.1445 70.2131 62.1445 69.4326C62.1445 68.6522 63.1747 68.0278 64.4234 68.0278C65.7033 68.0278 66.7023 68.6834 66.7023 69.4326Z" fill="#01063D"/>
<path d="M79.8427 59.193C79.4681 62.4708 76.4088 64.8434 74.7542 64.6561C73.0997 64.4687 73.5367 61.8153 73.8801 58.5374C74.2547 55.2596 74.4108 52.5749 76.0654 52.7622C77.7199 52.9495 80.2173 55.9151 79.8427 59.193Z" fill="#3EBF0F"/>
<path d="M75.3174 58.5374C75.5983 55.8527 75.7856 53.605 76.7222 52.9495C76.5036 52.8558 76.2851 52.7934 76.0978 52.7622C74.4433 52.5749 74.2872 55.2596 73.9126 58.5374C73.538 61.8153 73.1321 64.4687 74.7867 64.6561C75.0676 64.6873 75.411 64.6248 75.7544 64.5312C74.5994 63.9381 74.974 61.5031 75.3174 58.5374Z" fill="white"/>
<path opacity="0.5" d="M87.9611 100.369C87.1183 101.649 87.8987 95.5306 87.5241 92.3464C87.5241 92.3464 87.0558 100.869 85.4325 108.58C85.9632 108.392 86.4939 108.174 86.9622 107.986C87.8051 104.958 88.9913 100.12 89.4908 95.6867C89.5532 95.6867 88.8352 99.0894 87.9611 100.369ZM40.8851 100.369C40.0422 99.0894 39.3242 95.6867 39.3242 95.6867C39.8549 100.432 41.1973 105.645 42.0401 108.58C42.5084 108.736 43.0079 108.923 43.5074 109.079C41.7904 101.243 41.3221 92.3152 41.3221 92.3152C40.9475 95.5618 41.728 101.649 40.8851 100.369Z" fill="#545454"/>
</svg>
